<svg width="279" height="55" viewBox="0 0 279 55" fill="none" xmlns="http://www.w3.org/2000/svg">
<g clip-path="url(#clip0_7045_123)">
<mask id="mask0_7045_123" style="mask-type:luminance" maskUnits="userSpaceOnUse" x="0" y="0" width="279" height="55">
<path d="M279 0H0V54.3549H279V0Z" fill="white"/>
</mask>
<g mask="url(#mask0_7045_123)">
<path d="M5.64798 19.2094C4.51227 19.2094 3.58212 19.1683 2.84724 19.0912C2.11237 19.0142 1.53681 18.86 1.12055 18.6236C0.704295 18.3872 0.411374 18.048 0.246927 17.6009C0.0824797 17.1538 -0.00488281 16.5629 -0.00488281 15.8434C-0.00488281 15.422 0.015673 14.9903 0.0516459 14.5432C0.0927576 14.1013 0.149286 13.6696 0.226371 13.2534C0.303455 12.8371 0.395957 12.462 0.509014 12.1279L2.10723 12.3952C1.96334 12.9399 1.84514 13.4692 1.75778 13.978C1.67042 14.4867 1.62417 14.9801 1.62417 15.4426C1.62417 15.8434 1.63958 16.1929 1.66528 16.4909C1.69097 16.789 1.74236 17.087 1.80917 17.3748H6.52675C7.44662 17.3748 8.16608 17.3491 8.68512 17.2977C9.20415 17.2463 9.56902 17.159 9.78486 17.0305C10.0007 16.902 10.1086 16.7222 10.1086 16.4909V14.5741H11.7428V15.7715C11.7428 16.4395 11.6554 16.9894 11.4858 17.4314C11.3111 17.8682 11.0028 18.2228 10.5608 18.49C10.1137 18.7572 9.49708 18.9422 8.70053 19.0501C7.90399 19.158 6.88648 19.2094 5.64284 19.2094H5.64798ZM4.7795 22.1438C4.65616 22.1438 4.51227 22.0873 4.34782 21.9691C4.18338 21.8509 4.03949 21.7121 3.92129 21.5425C3.80309 21.3729 3.74656 21.2291 3.74656 21.1109C3.74656 20.9772 3.80309 20.8282 3.92129 20.6689C4.03949 20.5096 4.17824 20.3708 4.33755 20.2526C4.49685 20.1344 4.64588 20.0779 4.7795 20.0779C4.91311 20.0779 5.057 20.1344 5.21117 20.2526C5.36534 20.3708 5.50409 20.5096 5.62743 20.6689C5.75076 20.8282 5.81243 20.9772 5.81243 21.1109C5.81243 21.2342 5.75076 21.3729 5.62743 21.5374C5.50409 21.6967 5.36534 21.8406 5.20089 21.9639C5.04159 22.0873 4.89769 22.1489 4.77436 22.1489L4.7795 22.1438ZM9.4611 14.5792C8.89582 14.5792 8.28942 14.533 7.65218 14.4353C7.01495 14.3428 6.4548 14.2144 5.97688 14.0602L6.2441 12.3283C6.76828 12.462 7.26676 12.5596 7.74469 12.6264C8.22261 12.6932 8.6697 12.7241 9.09624 12.7241H13.6288V14.5741H9.4611V14.5792ZM7.35926 22.1438C7.23593 22.1438 7.09204 22.0873 6.92759 21.9691C6.76314 21.8509 6.61925 21.7121 6.50105 21.5425C6.38286 21.3729 6.32633 21.2291 6.32633 21.1109C6.32633 20.9772 6.38286 20.8282 6.50105 20.6689C6.61925 20.5096 6.758 20.3708 6.91731 20.2526C7.07662 20.1344 7.22565 20.0779 7.35926 20.0779C7.49288 20.0779 7.63677 20.1344 7.79094 20.2526C7.94511 20.3708 8.08386 20.5096 8.20719 20.6689C8.33053 20.8282 8.3922 20.9772 8.3922 21.1109C8.3922 21.2342 8.33053 21.3729 8.20719 21.5374C8.08386 21.6967 7.94511 21.8406 7.78066 21.9639C7.62135 22.0873 7.47746 22.1489 7.35412 22.1489L7.35926 22.1438Z" fill="black"/>
<path d="M12.9658 12.7295H15.5662C15.4994 12.4057 15.448 12.046 15.4171 11.6452C15.3863 11.2443 15.3657 10.7304 15.3657 10.0932C15.3657 9.41488 15.4223 8.84959 15.5405 8.4025C15.6587 7.95027 15.8539 7.59568 16.1314 7.32845C16.4089 7.06123 16.7841 6.86595 17.2569 6.74261C17.7297 6.61927 18.3258 6.55761 19.0504 6.55761C19.7184 6.55761 20.3248 6.59872 20.8696 6.68094C21.4143 6.76317 22.0104 6.90706 22.6528 7.10748V14.5744H12.971V12.7243L12.9658 12.7295ZM20.2837 12.7295C20.5612 12.7295 20.7514 12.6729 20.8593 12.565C20.9672 12.452 21.0186 12.2464 21.0186 11.9484V8.43333H17.853C17.5652 8.43333 17.3648 8.48986 17.262 8.60806C17.1541 8.72625 17.1027 8.95237 17.1027 9.28126V12.7295H20.2837ZM19.0504 4.76411C18.927 4.76411 18.7832 4.70758 18.6187 4.58938C18.4543 4.47118 18.3104 4.33243 18.1922 4.16285C18.074 3.9984 18.0174 3.85451 18.0174 3.73117C18.0174 3.59756 18.074 3.44853 18.1922 3.28922C18.3104 3.12991 18.4491 2.99116 18.6084 2.87296C18.7677 2.75477 18.9168 2.69824 19.0504 2.69824C19.184 2.69824 19.3279 2.75477 19.4821 2.87296C19.6362 2.99116 19.775 3.12991 19.8983 3.28922C20.0216 3.44853 20.0833 3.59756 20.0833 3.73117C20.0833 3.85451 20.0216 3.99326 19.8983 4.15771C19.775 4.31701 19.6362 4.46091 19.4718 4.58424C19.3125 4.70758 19.1686 4.76924 19.0452 4.76924L19.0504 4.76411Z" fill="black"/>
<path d="M25.7671 14.579V4.08008H27.4013V12.729H29.3028V14.579H25.7671Z" fill="black"/>
<path d="M28.6348 14.5796V12.7295H33.3678V14.5796H28.6348Z" fill="black"/>
<path d="M32.6997 14.5796V12.7295H37.4327V14.5796H32.6997Z" fill="black"/>
<path d="M36.7695 14.5796V12.7295H41.5025V14.5796H36.7695Z" fill="black"/>
<path d="M40.8345 14.5796V12.7295H45.5675V14.5796H40.8345Z" fill="black"/>
<path d="M44.8994 14.5796V12.7295H49.6324V14.5796H44.8994Z" fill="black"/>
<path d="M48.9697 14.5796V12.7295H53.7027V14.5796H48.9697Z" fill="black"/>
<path d="M57.3001 14.5793H53.0347V12.7292H55.6659V8.24805H57.3001V14.5793ZM58.8829 14.5793H57.3001V12.7292H59.6178C60.0751 12.7292 60.3989 12.6727 60.5993 12.5545C60.7997 12.4363 60.8974 12.1999 60.8974 11.8453V8.24291H62.547V11.1619C62.547 11.8505 62.5007 12.4158 62.4031 12.8629C62.3106 13.3048 62.1359 13.6543 61.8789 13.9061C61.622 14.1579 61.252 14.3326 60.7689 14.4302C60.2858 14.5279 59.6537 14.5793 58.8778 14.5793H58.8829ZM60.5685 4.76383C60.4451 4.76383 60.3012 4.7073 60.1368 4.5891C59.9724 4.47091 59.8285 4.33215 59.7103 4.16257C59.5921 3.99298 59.5355 3.85423 59.5355 3.73089C59.5355 3.59728 59.5921 3.44825 59.7103 3.28894C59.8285 3.12963 59.9672 2.99088 60.1265 2.87269C60.2858 2.75449 60.4349 2.69796 60.5685 2.69796C60.7021 2.69796 60.846 2.75449 61.0001 2.87269C61.1543 2.99088 61.2931 3.12963 61.4164 3.28894C61.5397 3.44825 61.6014 3.59728 61.6014 3.73089C61.6014 3.85423 61.5397 3.99298 61.4164 4.15743C61.2931 4.31674 61.1543 4.46063 60.9899 4.58396C60.8306 4.7073 60.6867 4.76897 60.5633 4.76897L60.5685 4.76383ZM61.8686 2.06587C61.7453 2.06587 61.6014 2.00934 61.437 1.89114C61.2725 1.77295 61.1286 1.63419 61.0104 1.46461C60.8922 1.29502 60.8357 1.15113 60.8357 1.03293C60.8357 0.89932 60.8922 0.75029 61.0104 0.590982C61.1286 0.431674 61.2674 0.292921 61.4267 0.174725C61.586 0.0565287 61.735 0 61.8686 0C62.0023 0 62.1461 0.0565287 62.3003 0.174725C62.4545 0.292921 62.5932 0.431674 62.7166 0.590982C62.8399 0.75029 62.9016 0.89932 62.9016 1.03293C62.9016 1.15627 62.8399 1.29502 62.7166 1.45947C62.5932 1.61878 62.4545 1.76267 62.29 1.886C62.1307 2.00934 61.9868 2.07101 61.8635 2.07101L61.8686 2.06587ZM64.4176 14.5844C63.6827 14.5844 63.0866 14.533 62.6241 14.4354C62.1616 14.3377 61.807 14.1579 61.5552 13.9112C61.3034 13.6645 61.1338 13.3151 61.0361 12.868C60.9436 12.426 60.8922 11.8556 60.8922 11.167V8.24805H62.5418V11.8505C62.5418 12.2051 62.6446 12.4415 62.8502 12.5597C63.0557 12.6778 63.3795 12.7344 63.8266 12.7344H65.9593C66.0261 12.4003 66.0723 12.0406 66.1032 11.6501C66.1288 11.2595 66.1443 10.8175 66.1443 10.3191C66.1443 9.82058 66.1031 9.29126 66.0261 8.73626C65.949 8.18125 65.8359 7.61596 65.692 7.03525L67.3262 6.78345C67.4136 7.08151 67.4907 7.43609 67.5575 7.84207C67.6243 8.24805 67.6808 8.65917 67.7219 9.07543C67.7682 9.49168 67.7887 9.87711 67.7887 10.2317C67.7887 11.352 67.6808 12.2308 67.4701 12.8577C67.2594 13.4847 66.91 13.9318 66.4269 14.1887C65.9438 14.4508 65.2706 14.5793 64.4022 14.5793L64.4176 14.5844ZM63.1534 4.76897C63.03 4.76897 62.8862 4.71244 62.7217 4.59424C62.5573 4.47605 62.4134 4.33729 62.2952 4.16771C62.177 4.00326 62.1204 3.85937 62.1204 3.73603C62.1204 3.60242 62.177 3.45339 62.2952 3.29408C62.4134 3.13477 62.5521 2.99602 62.7114 2.87783C62.8707 2.75963 63.0198 2.7031 63.1534 2.7031C63.287 2.7031 63.4309 2.75963 63.5851 2.87783C63.7392 2.99602 63.878 3.13477 64.0013 3.29408C64.1246 3.45339 64.1863 3.60242 64.1863 3.73603C64.1863 3.85937 64.1246 3.99812 64.0013 4.16257C63.878 4.32188 63.7392 4.46577 63.5748 4.5891C63.4155 4.71244 63.2716 4.77411 63.1482 4.77411L63.1534 4.76897ZM66.6222 12.7344H69.6902V14.5844H64.4227L66.6222 12.7344Z" fill="black"/>
<path d="M73.282 14.579H69.0166V12.729H71.6478V4.08008H73.282V14.579Z" fill="black"/>
<path d="M76.3857 14.579V4.08008H78.0199V14.579H76.3857Z" fill="black"/>
<path d="M86.5199 16.7269H89.372C90.148 16.7269 90.6979 16.6704 91.0114 16.5522C91.33 16.434 91.4841 16.1976 91.4841 15.843V4.04395H93.1183V15.0105C93.1183 15.7197 93.0618 16.3107 92.9539 16.7783C92.8408 17.246 92.6301 17.6108 92.3115 17.8678C91.9929 18.1299 91.5458 18.3097 90.9702 18.4176C90.3947 18.5256 89.6392 18.577 88.7039 18.577C87.8714 18.577 87.1931 18.5204 86.6689 18.4022C86.1447 18.284 85.7388 18.0887 85.451 17.8112C85.1632 17.5337 84.9628 17.1483 84.86 16.655C84.7521 16.1616 84.7007 15.5244 84.7007 14.7484C84.7007 14.2808 84.7212 13.8028 84.7572 13.3146C84.7983 12.8264 84.8549 12.3485 84.9319 11.8809C85.009 11.4132 85.1015 10.997 85.2146 10.6321L86.746 10.8839C86.6021 11.516 86.4942 12.1327 86.4274 12.7237C86.3606 13.3146 86.3297 13.8799 86.3297 14.4144C86.3297 14.9026 86.3452 15.3291 86.3709 15.6888C86.3966 16.0486 86.4479 16.398 86.5147 16.7321L86.5199 16.7269Z" fill="black"/>
<path d="M97.3171 4.42987C97.163 4.42987 97.0242 4.38362 96.9112 4.29625C96.793 4.20889 96.5977 4.02389 96.3202 3.74638L95.3027 4.22945L95.02 3.69499C95.3952 3.41749 95.6984 3.20679 95.9193 3.0629C96.1403 2.91901 96.3202 2.81623 96.4538 2.76484C96.5874 2.70831 96.7056 2.68262 96.8032 2.68262C96.9369 2.68262 97.0602 2.72373 97.1784 2.80595C97.2966 2.88818 97.497 3.07318 97.7848 3.3661L98.8023 2.89845L99.085 3.41749C98.7406 3.68472 98.458 3.89028 98.237 4.03417C98.016 4.17806 97.8362 4.28084 97.6974 4.34251C97.5587 4.40417 97.4353 4.43501 97.3223 4.43501L97.3171 4.42987ZM96.2482 14.5793V6.74755H97.8824V14.5793H96.2482Z" fill="black"/>
<path d="M110.221 19.2094C109.085 19.2094 108.155 19.1683 107.42 19.0912C106.685 19.0142 106.11 18.86 105.693 18.6236C105.277 18.3923 104.984 18.048 104.82 17.6009C104.655 17.1538 104.568 16.5629 104.568 15.8434C104.568 15.422 104.588 14.9903 104.624 14.5432C104.66 14.0962 104.722 13.6696 104.799 13.2534C104.876 12.8371 104.974 12.462 105.082 12.1279L106.68 12.3952C106.536 12.9399 106.418 13.4692 106.331 13.978C106.243 14.4867 106.197 14.9801 106.197 15.4426C106.197 15.8434 106.212 16.1929 106.238 16.4909C106.264 16.789 106.315 17.087 106.382 17.3748H111.099C112.019 17.3748 112.739 17.3491 113.258 17.2977C113.777 17.2463 114.142 17.159 114.358 17.0305C114.573 16.902 114.681 16.7222 114.681 16.4909V14.5741H116.316V15.7715C116.316 16.4395 116.228 16.9894 116.059 17.4314C115.884 17.8682 115.576 18.2228 115.134 18.49C114.686 18.7572 114.07 18.9422 113.273 19.0501C112.477 19.158 111.459 19.2094 110.216 19.2094H110.221ZM109.352 22.1438C109.229 22.1438 109.085 22.0873 108.921 21.9691C108.756 21.8509 108.612 21.7121 108.494 21.5425C108.376 21.3729 108.319 21.2291 108.319 21.1109C108.319 20.9772 108.376 20.8282 108.494 20.6689C108.612 20.5096 108.751 20.3708 108.91 20.2526C109.07 20.1344 109.219 20.0779 109.352 20.0779C109.486 20.0779 109.63 20.1344 109.784 20.2526C109.938 20.3708 110.077 20.5096 110.2 20.6689C110.323 20.8282 110.385 20.9772 110.385 21.1109C110.385 21.2342 110.323 21.3729 110.2 21.5374C110.077 21.6967 109.938 21.8406 109.774 21.9639C109.614 22.0873 109.47 22.1489 109.347 22.1489L109.352 22.1438ZM114.034 14.5792C113.469 14.5792 112.862 14.533 112.225 14.4353C111.588 14.3428 111.028 14.2144 110.55 14.0602L110.817 12.3283C111.341 12.462 111.839 12.5596 112.317 12.6264C112.795 12.6932 113.248 12.7241 113.669 12.7241H118.202V14.5741H114.034V14.5792ZM111.932 22.1438C111.809 22.1438 111.665 22.0873 111.5 21.9691C111.336 21.8509 111.192 21.7121 111.074 21.5425C110.956 21.3729 110.899 21.2291 110.899 21.1109C110.899 20.9772 110.956 20.8282 111.074 20.6689C111.192 20.5096 111.331 20.3708 111.49 20.2526C111.649 20.1344 111.798 20.0779 111.932 20.0779C112.066 20.0779 112.209 20.1344 112.364 20.2526C112.518 20.3708 112.657 20.5096 112.78 20.6689C112.903 20.8282 112.965 20.9772 112.965 21.1109C112.965 21.2342 112.903 21.3729 112.78 21.5374C112.657 21.6967 112.518 21.8406 112.353 21.9639C112.194 22.0873 112.05 22.1489 111.927 22.1489L111.932 22.1438Z" fill="black"/>
<path d="M117.533 12.7295H120.134C120.067 12.4057 120.016 12.046 119.985 11.6452C119.954 11.2443 119.933 10.7304 119.933 10.0932C119.933 9.41488 119.99 8.84959 120.108 8.4025C120.226 7.95027 120.422 7.59568 120.699 7.32845C120.977 7.06123 121.352 6.86595 121.825 6.74261C122.297 6.61927 122.893 6.55761 123.618 6.55761C124.286 6.55761 124.892 6.59872 125.437 6.68094C125.982 6.76317 126.578 6.90706 127.22 7.10748V14.5744H117.539V12.7243L117.533 12.7295ZM124.851 12.7295C125.129 12.7295 125.319 12.6729 125.427 12.565C125.535 12.452 125.586 12.2464 125.586 11.9484V8.43333H122.421C122.133 8.43333 121.932 8.48986 121.83 8.60806C121.722 8.72625 121.67 8.95237 121.67 9.28126V12.7295H124.851ZM123.618 4.76411C123.495 4.76411 123.351 4.70758 123.186 4.58938C123.022 4.47118 122.878 4.33243 122.76 4.16285C122.642 3.99326 122.585 3.85451 122.585 3.73117C122.585 3.59756 122.642 3.44853 122.76 3.28922C122.878 3.12991 123.017 2.99116 123.176 2.87296C123.335 2.75477 123.484 2.69824 123.618 2.69824C123.752 2.69824 123.896 2.75477 124.05 2.87296C124.204 2.99116 124.343 3.12991 124.466 3.28922C124.589 3.44853 124.651 3.59756 124.651 3.73117C124.651 3.85451 124.589 3.99326 124.466 4.15771C124.343 4.31701 124.204 4.46091 124.039 4.58424C123.88 4.70758 123.736 4.76924 123.613 4.76924L123.618 4.76411Z" fill="black"/>
<path d="M130.335 14.579V4.08008H131.969V12.729H133.87V14.579H130.335Z" fill="black"/>
<path d="M133.202 14.5796V12.7295H137.935V14.5796H133.202Z" fill="black"/>
<path d="M137.267 14.5796V12.7295H142V14.5796H137.267Z" fill="black"/>
<path d="M141.337 14.5796V12.7295H146.07V14.5796H141.337Z" fill="black"/>
<path d="M145.402 14.5796V12.7295H150.135V14.5796H145.402Z" fill="black"/>
<path d="M149.467 14.5796V12.7295H154.2V14.5796H149.467Z" fill="black"/>
<path d="M157.802 14.5793H153.537V12.7292H156.168V8.24805H157.802V14.5793ZM159.385 14.5793H157.802V12.7292H160.12C160.578 12.7292 160.901 12.6727 161.102 12.5545C161.302 12.4363 161.4 12.1999 161.4 11.8453V8.24291H163.049V11.1619C163.049 11.8505 163.003 12.4158 162.905 12.8629C162.808 13.3099 162.638 13.6543 162.381 13.9061C162.124 14.1579 161.754 14.3326 161.271 14.4302C160.788 14.5279 160.156 14.5793 159.38 14.5793H159.385ZM161.071 4.76383C160.948 4.76383 160.804 4.7073 160.639 4.5891C160.475 4.47091 160.331 4.33215 160.213 4.16257C160.094 3.99298 160.038 3.85423 160.038 3.73089C160.038 3.59728 160.094 3.44825 160.213 3.28894C160.331 3.12963 160.47 2.99088 160.629 2.87269C160.788 2.75449 160.937 2.69796 161.071 2.69796C161.204 2.69796 161.348 2.75449 161.503 2.87269C161.657 2.99088 161.795 3.12963 161.919 3.28894C162.042 3.44825 162.104 3.59728 162.104 3.73089C162.104 3.85423 162.042 3.99298 161.919 4.15743C161.795 4.31674 161.657 4.46063 161.492 4.58396C161.333 4.7073 161.189 4.76897 161.066 4.76897L161.071 4.76383ZM162.371 2.06587C162.248 2.06587 162.104 2.00934 161.939 1.89114C161.775 1.77295 161.631 1.63419 161.513 1.46461C161.395 1.29502 161.338 1.15113 161.338 1.03293C161.338 0.89932 161.395 0.75029 161.513 0.590982C161.631 0.431674 161.77 0.292921 161.929 0.174725C162.088 0.0565287 162.237 0 162.371 0C162.505 0 162.649 0.0565287 162.803 0.174725C162.957 0.292921 163.096 0.431674 163.219 0.590982C163.342 0.75029 163.404 0.89932 163.404 1.03293C163.404 1.15627 163.342 1.29502 163.219 1.45947C163.096 1.62392 162.957 1.76267 162.792 1.886C162.628 2.00934 162.489 2.07101 162.366 2.07101L162.371 2.06587ZM164.971 14.5844C164.226 14.5844 163.62 14.533 163.152 14.4354C162.684 14.3377 162.325 14.1579 162.078 13.9112C161.831 13.6645 161.652 13.3151 161.554 12.868C161.456 12.4209 161.405 11.8556 161.405 11.167V8.24805H163.054V11.8505C163.054 12.2051 163.157 12.4415 163.363 12.5597C163.568 12.6778 163.892 12.7344 164.339 12.7344H166.472C166.539 12.4003 166.585 12.0406 166.616 11.6501C166.641 11.2595 166.657 10.8175 166.657 10.3191C166.657 9.82058 166.616 9.29126 166.539 8.73626C166.462 8.18125 166.349 7.61596 166.205 7.03525L167.839 6.78345C167.926 7.08151 168.003 7.43609 168.07 7.84207C168.137 8.24805 168.193 8.65917 168.235 9.07543C168.281 9.49168 168.301 9.87711 168.301 10.2317C168.301 11.352 168.199 12.2308 167.993 12.8577C167.787 13.4847 167.443 13.9318 166.96 14.1887C166.477 14.4508 165.814 14.5793 164.966 14.5793L164.971 14.5844ZM163.656 4.76897C163.532 4.76897 163.389 4.71244 163.224 4.59424C163.06 4.47605 162.916 4.33729 162.798 4.16771C162.679 3.99812 162.623 3.85937 162.623 3.73603C162.623 3.60242 162.679 3.45339 162.798 3.29408C162.916 3.13477 163.054 2.99602 163.214 2.87783C163.373 2.75963 163.522 2.7031 163.656 2.7031C163.789 2.7031 163.933 2.75963 164.087 2.87783C164.242 2.99602 164.38 3.13477 164.504 3.29408C164.627 3.45339 164.689 3.60242 164.689 3.73603C164.689 3.85937 164.627 3.99812 164.504 4.16257C164.38 4.32188 164.242 4.46577 164.077 4.5891C163.918 4.71244 163.774 4.77411 163.651 4.77411L163.656 4.76897Z" fill="black"/>
<path d="M5.62718 28.3413V34.4362H2.52838C1.99392 34.4362 1.55711 34.4002 1.21794 34.3282C0.878764 34.2563 0.626955 34.1124 0.45223 33.8914C0.277505 33.6756 0.159308 33.3673 0.0976405 32.9716C0.0308338 32.5759 0 32.0465 0 31.3888C0 30.731 0.0308338 30.2068 0.0976405 29.8059C0.164447 29.4102 0.282644 29.1019 0.45223 28.8861C0.626955 28.6702 0.878764 28.5263 1.21794 28.4493C1.55711 28.3773 1.99392 28.3413 2.52838 28.3413H5.62718ZM4.7998 29.2766H1.86545C1.51086 29.2766 1.25905 29.3383 1.10488 29.4565C0.955849 29.5798 0.878765 29.7803 0.878765 30.068V32.7146C0.878765 33.0024 0.955849 33.2028 1.10488 33.3261C1.25391 33.4495 1.51086 33.506 1.86545 33.506H4.79466V29.2818L4.7998 29.2766ZM1.89628 26.774C1.8192 26.774 1.73183 26.738 1.62905 26.6712C1.53141 26.6044 1.44405 26.517 1.37211 26.4142C1.30016 26.3114 1.26419 26.2189 1.26419 26.1419C1.26419 26.0545 1.30016 25.9671 1.37211 25.8695C1.44405 25.7719 1.53141 25.6896 1.62905 25.6177C1.7267 25.5457 1.8192 25.5098 1.89628 25.5098C1.98364 25.5098 2.07615 25.5457 2.17379 25.6177C2.27143 25.6896 2.35879 25.777 2.4256 25.8695C2.4924 25.9671 2.52838 26.0545 2.52838 26.1419C2.52838 26.2189 2.4924 26.3063 2.42046 26.4091C2.34851 26.5067 2.26115 26.5941 2.16351 26.666C2.06587 26.738 1.97337 26.774 1.89628 26.774ZM3.63325 26.774C3.55617 26.774 3.46881 26.738 3.36603 26.6712C3.26839 26.6044 3.18102 26.517 3.10908 26.4142C3.03713 26.3114 3.00116 26.2189 3.00116 26.1419C3.00116 26.0545 3.03713 25.9671 3.10908 25.8695C3.18102 25.7719 3.26839 25.6896 3.36603 25.6177C3.46367 25.5457 3.55617 25.5098 3.63325 25.5098C3.72062 25.5098 3.81312 25.5457 3.91076 25.6177C4.0084 25.6896 4.09576 25.777 4.16257 25.8695C4.22938 25.9671 4.26535 26.0545 4.26535 26.1419C4.26535 26.2189 4.22938 26.3063 4.15743 26.4091C4.08548 26.5067 3.99812 26.5941 3.90048 26.666C3.80284 26.738 3.71034 26.774 3.63325 26.774ZM5.57579 33.5009H7.05581V34.4362H5.57579V33.5009Z" fill="black"/>
<path d="M9.46633 33.5003H11.1005V34.4356H6.53711V33.5003H8.63895V28.3408H9.46633V33.5003ZM8.1045 36.743C8.02742 36.743 7.94005 36.7071 7.83727 36.6402C7.73963 36.5734 7.65227 36.4861 7.58033 36.3833C7.50838 36.2805 7.47241 36.188 7.47241 36.1109C7.47241 36.0236 7.50838 35.9362 7.58033 35.8386C7.65227 35.7409 7.73963 35.6587 7.83727 35.5868C7.93491 35.5148 8.02742 35.4788 8.1045 35.4788C8.19186 35.4788 8.28436 35.5148 8.38201 35.5868C8.47965 35.6587 8.56701 35.7461 8.63381 35.8386C8.70062 35.9362 8.73659 36.0236 8.73659 36.1109C8.73659 36.188 8.70062 36.2754 8.62868 36.3782C8.55673 36.4758 8.46937 36.5632 8.37173 36.6351C8.27409 36.7071 8.18159 36.743 8.1045 36.743ZM9.84147 36.743C9.76439 36.743 9.67703 36.7071 9.57425 36.6402C9.47661 36.5734 9.38924 36.4861 9.3173 36.3833C9.24535 36.2805 9.20938 36.188 9.20938 36.1109C9.20938 36.0236 9.24535 35.9362 9.3173 35.8386C9.38924 35.7409 9.47661 35.6587 9.57425 35.5868C9.67189 35.5148 9.76439 35.4788 9.84147 35.4788C9.92884 35.4788 10.0213 35.5148 10.119 35.5868C10.2166 35.6587 10.304 35.7461 10.3708 35.8386C10.4376 35.9362 10.4736 36.0236 10.4736 36.1109C10.4736 36.188 10.4376 36.2754 10.3656 36.3782C10.2937 36.4758 10.2063 36.5632 10.1087 36.6351C10.0111 36.7071 9.91856 36.743 9.84147 36.743Z" fill="black"/>
<path d="M10.5815 34.4362V33.5009H12.6834V28.3413H13.5107V34.4362H10.5815ZM13.0945 26.774C13.0174 26.774 12.93 26.738 12.8272 26.6712C12.7296 26.6044 12.6422 26.517 12.5703 26.4142C12.4984 26.3114 12.4624 26.2189 12.4624 26.1419C12.4624 26.0545 12.4984 25.9671 12.5703 25.8695C12.6422 25.7719 12.7296 25.6896 12.8272 25.6177C12.9249 25.5457 13.0174 25.5098 13.0945 25.5098C13.1818 25.5098 13.2743 25.5457 13.372 25.6177C13.4696 25.6896 13.557 25.777 13.6238 25.8695C13.6906 25.9671 13.7266 26.0545 13.7266 26.1419C13.7266 26.2189 13.6906 26.3063 13.6186 26.4091C13.5467 26.5067 13.4593 26.5941 13.3617 26.666C13.2641 26.738 13.1716 26.774 13.0945 26.774Z" fill="black"/>
<path d="M17.7603 34.4364C17.416 34.4364 17.1333 34.3901 16.9175 34.3027C16.7017 34.2102 16.5321 34.0561 16.4036 33.8351C16.2803 33.6141 16.1929 33.3006 16.1467 32.8947C16.1004 32.4887 16.0747 31.9748 16.0747 31.353C16.0747 30.6952 16.1107 30.1659 16.1775 29.7599C16.2443 29.3539 16.3728 29.0404 16.5578 28.8195C16.7428 28.5985 17.0049 28.4443 17.3492 28.3569C17.6883 28.2696 18.1303 28.2285 18.6647 28.2285C19.1992 28.2285 19.6514 28.2593 20.0471 28.3107C20.4428 28.3672 20.8591 28.4649 21.2959 28.6036V33.5062L20.9465 34.4415H17.7552L17.7603 34.4364ZM19.8467 33.5011C20.0882 33.5011 20.2527 33.4497 20.3401 33.352C20.4274 33.2544 20.4685 33.0745 20.4685 32.8124V29.1586H17.5136C17.2978 29.1586 17.1488 29.21 17.0717 29.3077C16.9946 29.4053 16.9535 29.6057 16.9535 29.9089V33.5011H19.8467ZM18.5774 37.8589L18.084 37.196C18.3975 36.9544 18.6956 36.6769 18.9782 36.3686C19.266 36.0551 19.5178 35.7314 19.7439 35.3973C19.97 35.0582 20.1448 34.7293 20.2732 34.4004C20.4017 34.0715 20.4685 33.7734 20.4685 33.5062H21.2959C21.2959 33.8351 21.224 34.2 21.0749 34.6008C20.9259 35.0016 20.7306 35.4076 20.4788 35.8136C20.227 36.2196 19.9392 36.5999 19.6103 36.9544C19.2814 37.309 18.9371 37.6122 18.5722 37.864L18.5774 37.8589ZM21.0133 33.5011H23.0637V34.4364H21.0133V33.5011Z" fill="black"/>
<path d="M22.5449 34.4362V33.5009H24.6467V28.3413H25.4741V34.4362H22.5449ZM25.0578 26.774C24.9808 26.774 24.8934 26.738 24.7906 26.6712C24.693 26.6044 24.6056 26.517 24.5337 26.4142C24.4617 26.3114 24.4257 26.2189 24.4257 26.1419C24.4257 26.0545 24.4617 25.9671 24.5337 25.8695C24.6056 25.7719 24.693 25.6896 24.7906 25.6177C24.8883 25.5457 24.9808 25.5098 25.0578 25.5098C25.1452 25.5098 25.2377 25.5457 25.3353 25.6177C25.433 25.6896 25.5203 25.777 25.5872 25.8695C25.654 25.9671 25.6899 26.0545 25.6899 26.1419C25.6899 26.2189 25.654 26.3063 25.582 26.4091C25.5101 26.5067 25.4227 26.5941 25.3251 26.666C25.2274 26.738 25.1349 26.774 25.0578 26.774Z" fill="black"/>
<path d="M28.2236 34.4363V26.2705H29.0509V33.5061H30.6851V34.4414H28.2236V34.4363Z" fill="black"/>
<path d="M30.1658 33.5009H32.2779C32.2522 33.2696 32.2265 32.9716 32.206 32.6118C32.1854 32.2521 32.1751 31.769 32.1751 31.1678C32.1751 30.5665 32.2111 30.0937 32.2779 29.7083C32.3447 29.3229 32.4732 29.0248 32.653 28.8141C32.8329 28.6034 33.1001 28.4493 33.4445 28.3619C33.7888 28.2694 34.2307 28.2283 34.7652 28.2283C35.2071 28.2283 35.6234 28.2591 36.0242 28.3105C36.4199 28.367 36.8773 28.4647 37.3963 28.6034V34.4362H30.1606V33.5009H30.1658ZM35.9625 33.5009C36.1938 33.5009 36.3582 33.4495 36.4405 33.3518C36.5278 33.2542 36.5689 33.0743 36.5689 32.8122V29.1841H33.6757C33.4342 29.1841 33.2697 29.2355 33.1875 29.3383C33.1053 29.4411 33.0642 29.6466 33.0642 29.9498V33.5009H35.9574H35.9625ZM33.9018 26.774C33.8247 26.774 33.7374 26.738 33.6346 26.6712C33.5369 26.6044 33.4496 26.517 33.3776 26.4142C33.3057 26.3114 33.2697 26.2189 33.2697 26.1419C33.2697 26.0545 33.3057 25.9671 33.3776 25.8695C33.4496 25.7719 33.5369 25.6896 33.6346 25.6177C33.7322 25.5457 33.8247 25.5098 33.9018 25.5098C33.9892 25.5098 34.0817 25.5457 34.1793 25.6177C34.277 25.6896 34.3643 25.777 34.4311 25.8695C34.4979 25.9671 34.5339 26.0545 34.5339 26.1419C34.5339 26.2189 34.4979 26.3063 34.426 26.4091C34.354 26.5067 34.2667 26.5941 34.169 26.666C34.0714 26.738 33.9789 26.774 33.9018 26.774ZM35.6388 26.774C35.5617 26.774 35.4743 26.738 35.3716 26.6712C35.2739 26.6044 35.1866 26.517 35.1146 26.4142C35.0427 26.3114 35.0067 26.2189 35.0067 26.1419C35.0067 26.0545 35.0427 25.9671 35.1146 25.8695C35.1866 25.7719 35.2739 25.6896 35.3716 25.6177C35.4692 25.5457 35.5617 25.5098 35.6388 25.5098C35.7262 25.5098 35.8187 25.5457 35.9163 25.6177C36.0139 25.6896 36.1013 25.777 36.1681 25.8695C36.2349 25.9671 36.2709 26.0545 36.2709 26.1419C36.2709 26.2189 36.2349 26.3063 36.163 26.4091C36.091 26.5067 36.0037 26.5941 35.906 26.666C35.8084 26.738 35.7159 26.774 35.6388 26.774ZM37.4015 33.5009H39.0357V34.4362H37.4015V33.5009Z" fill="black"/>
<path d="M41.4458 34.4356H38.5166V33.5003H40.6184V26.2646H41.4458V34.4305V34.4356Z" fill="black"/>
<path d="M44.1953 34.4363V26.2705H45.0227V34.4363H44.1953Z" fill="black"/>
<path d="M52.4386 34.4361C52.0172 34.4361 51.678 34.3539 51.4262 34.1843C51.1744 34.0147 50.9945 33.7372 50.8866 33.3569C50.7787 32.9715 50.7222 32.4576 50.7222 31.8101C50.7222 31.4401 50.753 31.0392 50.8198 30.6127C50.8866 30.1862 50.9689 29.8367 51.0716 29.5695L51.8476 29.7134C51.75 30.068 51.678 30.4174 51.6266 30.7566C51.5753 31.0958 51.5496 31.4093 51.5496 31.697C51.5496 32.0773 51.565 32.4114 51.5958 32.694C51.6266 32.9766 51.6832 33.249 51.7705 33.5111H58.9137V28.3516H59.7411V34.4464H52.4283L52.4386 34.4361ZM54.525 28.0689C54.4479 28.0689 54.3606 28.0329 54.2578 27.9661C54.1602 27.8993 54.0728 27.812 54.0008 27.7092C53.9289 27.6064 53.8929 27.5139 53.8929 27.4368C53.8929 27.3495 53.9289 27.2621 54.0008 27.1645C54.0728 27.072 54.1602 26.9846 54.2578 26.9127C54.3554 26.8407 54.4479 26.8047 54.525 26.8047C54.6124 26.8047 54.7049 26.8407 54.8025 26.9127C54.9002 26.9846 54.9875 27.072 55.0543 27.1645C55.1211 27.2621 55.1571 27.3495 55.1571 27.4368C55.1571 27.5139 55.1211 27.6013 55.0492 27.7041C54.9773 27.8017 54.8899 27.8891 54.7922 27.961C54.6946 28.0329 54.6021 28.0689 54.525 28.0689ZM56.2774 28.0689C56.2003 28.0689 56.113 28.0329 56.0102 27.9661C55.9125 27.8993 55.8252 27.812 55.7532 27.7092C55.6813 27.6064 55.6453 27.5139 55.6453 27.4368C55.6453 27.3495 55.6813 27.2621 55.7532 27.1645C55.8252 27.072 55.9125 26.9846 56.0102 26.9127C56.1078 26.8407 56.2003 26.8047 56.2774 26.8047C56.3648 26.8047 56.4573 26.8407 56.5549 26.9127C56.6526 26.9846 56.7399 27.072 56.8067 27.1645C56.8735 27.2621 56.9095 27.3495 56.9095 27.4368C56.9095 27.5139 56.8735 27.6013 56.8016 27.7041C56.7296 27.8017 56.6423 27.8891 56.5446 27.961C56.447 28.0329 56.3545 28.0689 56.2774 28.0689Z" fill="black"/>
<path d="M62.5005 34.4363V26.2705H63.3279V34.4363H62.5005Z" fill="black"/>
<path d="M65.4708 37.7297L65.0957 37.0154C65.4349 36.8407 65.7021 36.6454 65.8974 36.4296C66.0978 36.2137 66.2365 35.9516 66.3239 35.6382C66.4113 35.3247 66.4524 34.9495 66.4524 34.5127V28.3408H67.2798V34.5127C67.2798 35.0472 67.2181 35.52 67.0999 35.9208C66.9766 36.3216 66.7864 36.6659 66.5141 36.9589C66.2468 37.2467 65.8974 37.5036 65.4657 37.7297H65.4708Z" fill="black"/>
<path d="M70.0342 34.4363V26.2705H70.8616V33.5061H72.4958V34.4414H70.0342V34.4363Z" fill="black"/>
<path d="M74.9058 34.4362H71.9766V33.5009H74.0784V29.508H74.9058V34.4362ZM76.2676 34.4362H74.9058V33.5009H76.8483C77.2183 33.5009 77.4856 33.4547 77.6397 33.3673C77.7939 33.2748 77.871 33.095 77.871 32.8175V29.5131H78.6983V32.1699C78.6983 32.6273 78.6675 33.0076 78.6059 33.3057C78.5442 33.6037 78.4311 33.835 78.2564 33.9994C78.0817 34.1639 77.835 34.2769 77.5164 34.3437C77.1978 34.4105 76.7764 34.4414 76.2573 34.4414L76.2676 34.4362ZM77.5626 26.774C77.4855 26.774 77.3982 26.738 77.2954 26.6712C77.1978 26.6044 77.1104 26.5171 77.0385 26.4143C76.9665 26.3115 76.9305 26.219 76.9305 26.1419C76.9305 26.0546 76.9665 25.9672 77.0385 25.8696C77.1104 25.7719 77.1978 25.6897 77.2954 25.6178C77.3931 25.5458 77.4855 25.5098 77.5626 25.5098C77.65 25.5098 77.7425 25.5458 77.8401 25.6178C77.9378 25.6897 78.0251 25.7771 78.092 25.8696C78.1588 25.9621 78.1947 26.0546 78.1947 26.1419C78.1947 26.219 78.1588 26.3064 78.0868 26.4092C78.0149 26.5068 77.9275 26.5942 77.8299 26.6661C77.7322 26.7381 77.6397 26.774 77.5626 26.774ZM78.4465 24.9702C78.3695 24.9702 78.2821 24.9343 78.1793 24.8675C78.0817 24.8007 77.9943 24.7133 77.9224 24.6105C77.8504 24.5077 77.8144 24.4152 77.8144 24.3381C77.8144 24.2508 77.8504 24.1634 77.9224 24.0658C77.9943 23.9681 78.0817 23.8859 78.1793 23.814C78.277 23.742 78.3695 23.7061 78.4465 23.7061C78.5339 23.7061 78.6264 23.742 78.724 23.814C78.8217 23.8859 78.909 23.9733 78.9759 24.0658C79.0427 24.1634 79.0786 24.2508 79.0786 24.3381C79.0786 24.4152 79.0427 24.5026 78.9707 24.6054C78.8988 24.703 78.8114 24.7904 78.7138 24.8623C78.6161 24.9343 78.5236 24.9702 78.4465 24.9702ZM80.4148 34.4362C79.87 34.4362 79.4332 34.4054 79.0992 34.3386C78.7652 34.2718 78.5133 34.1587 78.3335 33.9943C78.1588 33.8298 78.0354 33.5986 77.9686 33.3005C77.9018 33.0025 77.871 32.6222 77.871 32.1648V29.508H78.6983V32.8123C78.6983 33.0898 78.7754 33.2748 78.9245 33.3622C79.0735 33.4547 79.3407 33.4958 79.721 33.4958H81.4991C81.5608 33.1566 81.6019 32.802 81.6276 32.4269C81.6533 32.0517 81.6687 31.6149 81.6687 31.1216C81.6687 30.7413 81.6378 30.3251 81.5762 29.878C81.5145 29.4309 81.4323 28.9684 81.3295 28.5059L82.1466 28.3774C82.2083 28.5829 82.2648 28.8553 82.3162 29.1893C82.3676 29.5234 82.4087 29.8574 82.4447 30.1914C82.4806 30.5306 82.4961 30.8338 82.4961 31.101C82.4961 31.949 82.4447 32.6119 82.347 33.095C82.2494 33.578 82.049 33.9223 81.7509 34.1279C81.4528 34.3335 81.0057 34.4311 80.4096 34.4311L80.4148 34.4362ZM79.2996 26.774C79.2225 26.774 79.1352 26.738 79.0324 26.6712C78.9347 26.6044 78.8474 26.5171 78.7754 26.4143C78.7035 26.3115 78.6675 26.219 78.6675 26.1419C78.6675 26.0546 78.7035 25.9672 78.7754 25.8696C78.8474 25.7719 78.9347 25.6897 79.0324 25.6178C79.13 25.5458 79.2225 25.5098 79.2996 25.5098C79.387 25.5098 79.4795 25.5458 79.5771 25.6178C79.6748 25.6897 79.7621 25.7771 79.8289 25.8696C79.8957 25.9672 79.9317 26.0546 79.9317 26.1419C79.9317 26.219 79.8957 26.3064 79.8238 26.4092C79.7518 26.5068 79.6645 26.5942 79.5668 26.6661C79.4692 26.7381 79.3767 26.774 79.2996 26.774ZM81.7252 33.5009H84.1251V34.4362H80.4148L81.7252 33.5009Z" fill="black"/>
<path d="M86.5356 33.5009H88.1698V34.4362H83.6064V33.5009H85.7082V28.3413H86.5356V33.5009ZM85.2508 26.774C85.1737 26.774 85.0864 26.738 84.9836 26.6712C84.886 26.6044 84.7986 26.517 84.7266 26.4142C84.6547 26.3114 84.6187 26.2189 84.6187 26.1419C84.6187 26.0545 84.6547 25.9671 84.7266 25.8695C84.7986 25.7719 84.886 25.6896 84.9836 25.6177C85.0812 25.5457 85.1737 25.5098 85.2508 25.5098C85.3382 25.5098 85.4307 25.5457 85.5283 25.6177C85.626 25.6896 85.7133 25.777 85.7801 25.8695C85.8469 25.9671 85.8829 26.0545 85.8829 26.1419C85.8829 26.2189 85.847 26.3063 85.775 26.4091C85.7031 26.5067 85.6157 26.5941 85.5181 26.666C85.4204 26.738 85.3279 26.774 85.2508 26.774ZM86.9878 26.774C86.9107 26.774 86.8234 26.738 86.7206 26.6712C86.6229 26.6044 86.5356 26.517 86.4636 26.4142C86.3917 26.3114 86.3557 26.2189 86.3557 26.1419C86.3557 26.0545 86.3917 25.9671 86.4636 25.8695C86.5356 25.7719 86.6229 25.6896 86.7206 25.6177C86.8182 25.5457 86.9107 25.5098 86.9878 25.5098C87.0752 25.5098 87.1677 25.5457 87.2653 25.6177C87.3629 25.6896 87.4503 25.777 87.5171 25.8695C87.5839 25.9671 87.6199 26.0545 87.6199 26.1419C87.6199 26.2189 87.5839 26.3063 87.512 26.4091C87.44 26.5067 87.3527 26.5941 87.255 26.666C87.1574 26.738 87.0649 26.774 86.9878 26.774Z" fill="black"/>
<path d="M90.5796 34.4365H87.6504V33.5012H89.7523V29.5082H90.5796V34.4365ZM91.9415 34.4365H90.5796V33.5012H92.5222C92.8922 33.5012 93.1594 33.4549 93.3136 33.3676C93.4677 33.2751 93.5448 33.0952 93.5448 32.8177V29.5133H94.3722V32.1702C94.3722 32.6276 94.3414 33.0078 94.2797 33.3059C94.218 33.604 94.105 33.8352 93.9303 33.9997C93.7555 34.1641 93.5089 34.2772 93.1902 34.344C92.8716 34.4108 92.4502 34.4416 91.9312 34.4416L91.9415 34.4365ZM96.0629 34.4365C95.5285 34.4365 95.0968 34.4056 94.7679 34.3388C94.439 34.272 94.1872 34.159 94.0073 33.9894C93.8326 33.8198 93.7093 33.5885 93.6425 33.2956C93.5757 33.0027 93.5448 32.6276 93.5448 32.1702V29.5133H94.3722V32.8177C94.3722 33.0952 94.4493 33.2802 94.5983 33.3676C94.7474 33.4549 95.0146 33.5012 95.3949 33.5012H97.1729C97.2346 33.162 97.2757 32.8074 97.3014 32.4323C97.3271 32.0571 97.3425 31.6203 97.3425 31.127C97.3425 30.7467 97.3117 30.3304 97.25 29.8833C97.1884 29.4363 97.1061 28.9738 97.0034 28.5112L97.8205 28.3828C97.8821 28.5883 97.9387 28.8607 97.99 29.1947C98.0414 29.5288 98.0825 29.8628 98.1185 30.1968C98.1545 30.536 98.1699 30.8392 98.1699 31.1064C98.1699 31.9544 98.1185 32.6173 98.0157 33.1003C97.913 33.5834 97.7125 33.9277 97.4145 34.1333C97.1164 34.3388 96.6642 34.4365 96.0578 34.4365H96.0629Z" fill="black"/>
<path d="M105.334 29.5748V26.2705H106.161V28.9787C106.161 29.2048 106.13 29.4155 106.079 29.6159C106.027 29.8164 105.935 29.9859 105.822 30.135C105.704 30.284 105.549 30.3919 105.349 30.4587V30.5512C105.781 30.9058 106.079 31.2296 106.238 31.5174C106.397 31.8051 106.48 32.1289 106.48 32.4835C106.48 33.2338 106.217 33.7836 105.693 34.1228C105.169 34.462 104.331 34.6367 103.17 34.6367C102.445 34.6367 101.875 34.5802 101.464 34.4671C101.053 34.3541 100.765 34.1691 100.601 33.9121C100.436 33.6552 100.354 33.3006 100.354 32.8638C100.354 32.4681 100.4 32.1494 100.498 31.9182C100.595 31.6869 100.775 31.4814 101.043 31.3169C101.31 31.1473 101.7 30.9623 102.209 30.7671L105.334 29.5851V29.5748ZM103.854 30.5204L100.714 27.992L101.243 27.3291L104.784 30.1812L103.848 30.5204H103.854ZM101.233 33.6963H103.941C104.522 33.6963 104.938 33.5832 105.2 33.352C105.462 33.1207 105.59 32.8638 105.59 32.5657C105.59 32.3653 105.534 32.1597 105.431 31.9439C105.323 31.7281 105.169 31.5431 104.969 31.3889L104.347 30.8955L101.238 32.0621V33.6963H101.233Z" fill="black"/>
<path d="M108.915 34.4363V26.2705H109.743V34.4363H108.915Z" fill="black"/>
<path d="M113.993 34.4364C113.648 34.4364 113.366 34.3901 113.15 34.3027C112.934 34.2102 112.764 34.0561 112.636 33.8351C112.513 33.6141 112.425 33.3006 112.379 32.8947C112.333 32.4887 112.307 31.9748 112.307 31.353C112.307 30.6952 112.343 30.1659 112.41 29.7599C112.477 29.3539 112.605 29.0404 112.79 28.8195C112.975 28.5985 113.237 28.4443 113.582 28.3569C113.921 28.2696 114.363 28.2285 114.897 28.2285C115.432 28.2285 115.884 28.2593 116.28 28.3107C116.675 28.3672 117.092 28.4649 117.528 28.6036V33.5062L117.179 34.4415H113.988L113.993 34.4364ZM116.079 33.5011C116.321 33.5011 116.485 33.4497 116.572 33.352C116.66 33.2544 116.701 33.0745 116.701 32.8124V29.1586H113.746C113.53 29.1586 113.381 29.21 113.304 29.3077C113.227 29.4053 113.186 29.6057 113.186 29.9089V33.5011H116.079ZM114.81 37.8589L114.316 37.196C114.63 36.9544 114.928 36.6769 115.211 36.3686C115.493 36.0551 115.75 35.7314 115.976 35.3973C116.202 35.0582 116.377 34.7293 116.506 34.4004C116.634 34.0715 116.701 33.7734 116.701 33.5062H117.528C117.528 33.8351 117.456 34.2 117.307 34.6008C117.158 35.0016 116.963 35.4076 116.711 35.8136C116.459 36.2196 116.172 36.5999 115.843 36.9544C115.514 37.309 115.17 37.6122 114.805 37.864L114.81 37.8589Z" fill="black"/>
<path d="M129.07 28.3413V34.4362H125.972C125.437 34.4362 125 34.4002 124.661 34.3282C124.322 34.2563 124.07 34.1124 123.896 33.8914C123.721 33.6756 123.603 33.3673 123.541 32.9716C123.474 32.5759 123.443 32.0465 123.443 31.3888C123.443 30.731 123.474 30.2068 123.541 29.8059C123.608 29.4102 123.726 29.1019 123.896 28.8861C124.07 28.6702 124.322 28.5263 124.661 28.4493C125 28.3773 125.432 28.3413 125.972 28.3413H129.07ZM128.243 29.2766H125.314C124.959 29.2766 124.707 29.3383 124.553 29.4565C124.404 29.5798 124.327 29.7803 124.327 30.068V32.7146C124.327 33.0024 124.404 33.2028 124.553 33.3261C124.702 33.4495 124.959 33.506 125.314 33.506H128.243V29.2818V29.2766ZM125.545 26.774C125.468 26.774 125.381 26.738 125.278 26.6712C125.18 26.6044 125.093 26.517 125.021 26.4142C124.949 26.3114 124.913 26.2189 124.913 26.1419C124.913 26.0545 124.949 25.9671 125.021 25.8695C125.093 25.7719 125.18 25.6896 125.278 25.6177C125.376 25.5457 125.468 25.5098 125.545 25.5098C125.632 25.5098 125.725 25.5457 125.823 25.6177C125.92 25.6896 126.008 25.777 126.074 25.8695C126.141 25.9671 126.177 26.0545 126.177 26.1419C126.177 26.2189 126.141 26.3063 126.069 26.4091C125.997 26.5119 125.91 26.5941 125.812 26.666C125.715 26.738 125.622 26.774 125.545 26.774ZM127.282 26.774C127.205 26.774 127.118 26.738 127.015 26.6712C126.917 26.6044 126.83 26.517 126.758 26.4142C126.686 26.3114 126.65 26.2189 126.65 26.1419C126.65 26.0545 126.686 25.9671 126.758 25.8695C126.83 25.7719 126.917 25.6896 127.015 25.6177C127.113 25.5457 127.205 25.5098 127.282 25.5098C127.369 25.5098 127.462 25.5457 127.56 25.6177C127.657 25.6896 127.745 25.777 127.811 25.8695C127.878 25.9671 127.914 26.0545 127.914 26.1419C127.914 26.2189 127.878 26.3063 127.806 26.4091C127.734 26.5067 127.647 26.5941 127.549 26.666C127.452 26.738 127.359 26.774 127.282 26.774Z" fill="black"/>
<path d="M131.82 34.4363V26.2705H132.647V33.5061H134.281V34.4414H131.82V34.4363Z" fill="black"/>
<path d="M138.706 28.2227C139.292 28.2227 139.754 28.2741 140.094 28.3718C140.433 28.4694 140.669 28.6339 140.813 28.86C140.957 29.0861 141.029 29.3944 141.029 29.7953V34.4358H133.767V33.5005H140.196V29.3276C139.97 29.2608 139.739 29.2146 139.497 29.194C139.256 29.1735 138.973 29.1632 138.655 29.1632C138.336 29.1632 137.956 29.1889 137.539 29.2403C137.123 29.2917 136.738 29.3687 136.383 29.4715L136.059 28.7212C136.275 28.6082 136.532 28.5208 136.83 28.4489C137.128 28.3821 137.442 28.3255 137.776 28.2844C138.11 28.2433 138.418 28.2279 138.701 28.2279L138.706 28.2227ZM136.034 34.0555C135.802 33.7883 135.643 33.4234 135.566 32.9609C135.489 32.4984 135.448 32.0256 135.448 31.5425C135.448 31.0338 135.504 30.5404 135.623 30.0625C135.741 29.5846 135.885 29.1375 136.059 28.7161L136.799 28.9885C136.65 29.4355 136.527 29.8724 136.429 30.2835C136.332 30.6997 136.28 31.116 136.28 31.5425C136.28 31.8457 136.296 32.1541 136.332 32.4624C136.368 32.7759 136.429 33.0688 136.512 33.3514C136.599 33.6341 136.717 33.8808 136.877 34.0966L136.034 34.0555Z" fill="black"/>
<path d="M143.722 34.4363V26.2705H144.549V33.5061H146.183V34.4414H143.722V34.4363Z" fill="black"/>
<path d="M151.163 31.1417L151.929 31.5065C151.774 31.8971 151.584 32.2671 151.363 32.6166C151.142 32.966 150.875 33.2795 150.562 33.5519C150.248 33.8242 149.878 34.0401 149.462 34.1994C149.041 34.3587 148.563 34.4409 148.018 34.4409H145.669V33.5056H148.496C148.84 33.5056 149.159 33.4285 149.441 33.2795C149.729 33.1305 149.981 32.9352 150.202 32.7039C150.423 32.4727 150.613 32.2157 150.772 31.9434C150.932 31.671 151.065 31.4038 151.168 31.1468L151.163 31.1417ZM152.756 33.5005H153.47V34.4358H152.915C152.658 34.4358 152.458 34.3792 152.319 34.261C152.18 34.1428 152.062 33.963 151.97 33.7112L151.034 31.301C150.808 30.7563 150.557 30.3297 150.284 30.0265C150.007 29.7182 149.667 29.4972 149.261 29.3636C148.856 29.23 148.342 29.1632 147.72 29.1632C147.571 29.1632 147.422 29.1632 147.268 29.1683C147.113 29.1683 146.949 29.1837 146.774 29.1992L146.63 28.2896C146.862 28.2741 147.083 28.2587 147.293 28.2433C147.499 28.233 147.699 28.2227 147.889 28.2227C148.609 28.2227 149.21 28.3152 149.698 28.4951C150.186 28.675 150.598 28.9679 150.932 29.3636C151.266 29.7593 151.553 30.2835 151.795 30.931L152.766 33.5005H152.756Z" fill="black"/>
<path d="M157.89 28.2227C158.476 28.2227 158.938 28.2741 159.277 28.3718C159.617 28.4694 159.853 28.6339 159.997 28.86C160.141 29.0861 160.213 29.3944 160.213 29.7953V34.4358H152.951V33.5005H159.38V29.3276C159.154 29.2608 158.923 29.2146 158.681 29.194C158.44 29.1735 158.157 29.1632 157.838 29.1632C157.52 29.1632 157.14 29.1889 156.723 29.2403C156.307 29.2917 155.922 29.3687 155.567 29.4715L155.243 28.7212C155.459 28.6082 155.716 28.5208 156.014 28.4489C156.312 28.3821 156.626 28.3255 156.96 28.2844C157.294 28.2433 157.602 28.2279 157.885 28.2279L157.89 28.2227ZM155.218 34.0555C154.986 33.7883 154.827 33.4234 154.75 32.9609C154.673 32.4984 154.632 32.0256 154.632 31.5425C154.632 31.0338 154.688 30.5404 154.806 30.0625C154.925 29.5846 155.069 29.1375 155.243 28.7161L155.983 28.9885C155.834 29.4355 155.711 29.8724 155.613 30.2835C155.516 30.6997 155.464 31.116 155.464 31.5425C155.464 31.8457 155.48 32.1541 155.516 32.4624C155.552 32.7759 155.613 33.0688 155.696 33.3514C155.783 33.6341 155.901 33.8808 156.06 34.0966L155.218 34.0555ZM160.208 33.5005H161.842V34.4358H160.208V33.5005Z" fill="black"/>
<path d="M164.257 33.5003H165.891V34.4356H161.328V33.5003H163.43V26.2646H164.257V33.5003Z" fill="black"/>
<path d="M168.301 34.4356H165.372V33.5003H167.474V26.2646H168.301V34.4305V34.4356Z" fill="black"/>
<path d="M1.18719 53.2703C1.5315 53.3474 1.97345 53.4194 2.51304 53.4759C3.05263 53.5324 3.56139 53.5633 4.02904 53.5633C4.27571 53.5633 4.53266 53.5633 4.79475 53.5479C5.05683 53.5324 5.41656 53.5119 5.86879 53.4759V50.0585L4.44016 49.9557C3.75154 49.9043 3.19139 49.8375 2.75971 49.7502C2.32804 49.6628 1.99401 49.5292 1.75761 49.3442C1.52122 49.1643 1.36191 48.9176 1.26941 48.6093C1.17691 48.301 1.1358 47.9053 1.1358 47.4222C1.1358 46.7541 1.21802 46.2197 1.37733 45.824C1.53664 45.4283 1.80386 45.1405 2.17387 44.9606C2.54388 44.7859 3.02694 44.6934 3.62306 44.6934C4.10612 44.6934 4.56863 44.7088 5.02086 44.7448C5.47309 44.7808 5.94588 44.8373 6.43408 44.9144L6.30047 45.6647C5.89963 45.5876 5.47309 45.5362 5.03114 45.5105C4.58919 45.4848 4.08043 45.4745 3.49973 45.4745C3.21708 45.4745 2.98069 45.4745 2.80082 45.4899C2.62096 45.5002 2.4154 45.5208 2.18929 45.5465V48.9947L4.02904 49.0975C4.79475 49.1386 5.38573 49.2363 5.79685 49.4007C6.20796 49.5651 6.49575 49.8324 6.66019 50.2024C6.82464 50.5775 6.90173 51.0966 6.90173 51.7646C6.90173 52.4327 6.80409 52.9415 6.61394 53.3217C6.4238 53.702 6.09491 53.9641 5.62726 54.1183C5.15961 54.2724 4.5121 54.3444 3.68987 54.3444C3.22736 54.3444 2.78541 54.3238 2.36401 54.2776C1.94262 54.2313 1.49039 54.1594 1.00732 54.0515L1.17177 53.2703H1.18719Z" fill="black"/>
<path d="M10.0882 54.1291H9.13232V44.9201H10.0882V54.1291ZM14.7287 49.9871H9.85177V49.1752H14.7287V49.9871ZM14.4923 44.915H15.4482V54.124H14.4923V44.915Z" fill="black"/>
<path d="M17.2671 54.1289L20.1089 44.9199H21.5067L24.364 54.1289H23.4081L20.8746 45.7575H20.741L18.2229 54.1289H17.2671ZM18.4901 51.8575V51.0301H23.1769V51.8575H18.4901Z" fill="black"/>
<path d="M27.139 50.0897V54.1289H26.1831V44.9199H30.839L30.7362 45.7164H27.139V49.2674H30.248V50.0948H27.139V50.0897Z" fill="black"/>
<path d="M32.71 44.915H33.6658V54.124H32.71V44.915Z" fill="black"/>
<path d="M39.4316 54.1289L42.2734 44.9199H43.6712L46.5285 54.1289H45.5727L43.0392 45.7575H42.9055L40.3874 54.1289H39.4316ZM40.6547 51.8575V51.0301H45.3414V51.8575H40.6547Z" fill="black"/>
<path d="M48.3477 54.1289V44.9199H49.3035V53.3375H52.9008V54.1341H48.3477V54.1289Z" fill="black"/>
<path d="M53.6099 50.0899C53.6099 49.8638 53.6613 49.7302 53.7589 49.6942C53.8566 49.6531 54.0313 49.6377 54.2728 49.6377H57.7057V50.0642C57.7057 50.28 57.6594 50.4085 57.5669 50.4548C57.4744 50.501 57.3048 50.5216 57.0582 50.5216H53.6099V50.095V50.0899Z" fill="black"/>
<path d="M58.5176 54.1289L61.3595 44.9199H62.7573L65.6145 54.1289H64.6587L62.1252 45.7575H61.9916L59.4735 54.1289H58.5176ZM59.7407 51.8575V51.0301H64.4274V51.8575H59.7407Z" fill="black"/>
<path d="M67.4341 54.1289V44.9199H68.3899V53.3375H71.9872V54.1341H67.4341V54.1289Z" fill="black"/>
<path d="M73.107 53.2703C73.4514 53.3474 73.8933 53.4194 74.4329 53.4759C74.9725 53.5324 75.4812 53.5633 75.9489 53.5633C76.1956 53.5633 76.4525 53.5633 76.7146 53.5479C76.9767 53.5324 77.3364 53.5119 77.7886 53.4759V50.0585L76.36 49.9557C75.6714 49.9043 75.1113 49.8375 74.6796 49.7502C74.2479 49.6628 73.9139 49.5292 73.6775 49.3442C73.4411 49.1643 73.2818 48.9176 73.1893 48.6093C73.0968 48.301 73.0557 47.9053 73.0557 47.4222C73.0557 46.7541 73.1379 46.2197 73.2972 45.824C73.4565 45.4283 73.7237 45.1405 74.0937 44.9606C74.4637 44.7859 74.9468 44.6934 75.5429 44.6934C76.026 44.6934 76.4885 44.7088 76.9407 44.7448C77.393 44.7808 77.8657 44.8373 78.3539 44.9144L78.2203 45.6647C77.8195 45.5876 77.393 45.5362 76.951 45.5105C76.5091 45.4848 76.0003 45.4745 75.4196 45.4745C75.1369 45.4745 74.9005 45.4745 74.7207 45.4899C74.5408 45.5002 74.3353 45.5208 74.1092 45.5465V48.9947L75.9489 49.0975C76.7146 49.1386 77.3056 49.2363 77.7167 49.4007C78.1278 49.5651 78.4156 49.8324 78.5801 50.2024C78.7445 50.5775 78.8216 51.0966 78.8216 51.7646C78.8216 52.4327 78.7239 52.9415 78.5338 53.3217C78.3437 53.702 78.0148 53.9641 77.5471 54.1183C77.0795 54.2724 76.432 54.3444 75.6097 54.3444C75.1472 54.3444 74.7053 54.3238 74.2839 54.2776C73.8625 54.2313 73.4102 54.1594 72.9272 54.0515L73.0916 53.2703H73.107Z" fill="black"/>
<path d="M82.013 54.1291H81.0571V44.9201H82.013V54.1291ZM86.6535 49.9871H81.7766V49.1752H86.6535V49.9871ZM86.4171 44.915H87.3729V54.124H86.4171V44.915Z" fill="black"/>
<path d="M89.187 54.1289L92.0288 44.9199H93.4266L96.2839 54.1289H95.3281L92.7946 45.7575H92.6609L90.1428 54.1289H89.187ZM90.4101 51.8575V51.0301H95.0968V51.8575H90.4101Z" fill="black"/>
<path d="M99.0642 50.0897V54.1289H98.1084V44.9199H102.764L102.661 45.7164H99.0642V49.2674H102.173V50.0948H99.0642V50.0897Z" fill="black"/>
<path d="M104.635 44.915H105.59V54.124H104.635V44.915Z" fill="black"/>
<path d="M112.605 54.1289V44.9199H113.561V53.3375H117.158V54.1341H112.605V54.1289Z" fill="black"/>
<path d="M116.835 54.1289L119.682 44.9199H121.079L123.937 54.1289H122.981L120.447 45.7575H120.314L117.796 54.1289H116.84H116.835ZM118.058 51.8575V51.0301H122.744V51.8575H118.058Z" fill="black"/>
<path d="M124.368 44.915H125.324L126.768 53.2863H126.902L129.081 44.915H129.98L127.59 54.124H126.028L124.363 44.915H124.368ZM134.8 44.915L133.135 54.124H131.573L129.184 44.915H130.067L132.262 53.2863H132.395L133.839 44.915H134.795H134.8Z" fill="black"/>
<path d="M141.61 50.0897V54.1289H140.654V44.9199H145.31L145.207 45.7164H141.61V49.2674H144.719V50.0948H141.61V50.0897Z" fill="black"/>
<path d="M147.185 44.915H148.141V54.124H147.185V44.915Z" fill="black"/>
<path d="M152.165 50.6653V54.1289H151.209V44.9199H154.688C155.269 44.9199 155.721 45.0124 156.045 45.1922C156.369 45.3721 156.6 45.6856 156.728 46.1224C156.862 46.5592 156.929 47.1605 156.929 47.9262C156.929 48.9283 156.78 49.6375 156.482 50.0486C156.184 50.4597 155.66 50.6653 154.914 50.6653H152.175H152.165ZM152.165 49.8379H154.76C155.202 49.8379 155.505 49.7916 155.675 49.7043C155.839 49.6169 155.927 49.4525 155.927 49.2161V46.328C155.927 46.0916 155.845 45.9323 155.675 45.8398C155.51 45.7524 155.202 45.7061 154.76 45.7061H152.165V49.8327V49.8379ZM155.598 50.4546L157.396 54.1238H156.348L154.534 50.2747L155.598 50.4494V50.4546Z" fill="black"/>
<path d="M159.298 54.1289L159.93 44.9199H161.389L163.748 52.5821H163.851L166.225 44.9199H167.669L168.301 54.1289H167.356L166.811 45.8757H166.724L164.216 54.1289H163.389L160.881 45.8757H160.793L160.233 54.1289H159.288H159.298Z" fill="black"/>
<path d="M261.601 14.5742H257.998V54.1905H261.601V14.5742Z" fill="#C5941A"/>
<path d="M247.186 28.9578V39.7702H196.721V14.7793H200.329V36.1678H229.164V28.9578H232.771V36.1678H236.374V28.9578H239.981V36.1678H243.584V28.9578H247.186Z" fill="#C5941A"/>
<path d="M239.976 14.7793H236.374V18.3818H239.976V14.7793Z" fill="#C5941A"/>
<path d="M247.186 43.3777V46.9801H182.301V36.1677H189.511V32.5653H187.708C186.711 32.5653 185.811 32.1593 185.159 31.5118C184.506 30.8591 184.105 29.9598 184.105 28.9629C184.105 26.9689 185.719 25.3604 187.708 25.3604H193.114V39.7804H185.904V43.3828H247.181L247.186 43.3777Z" fill="#C5941A"/>
<path d="M193.119 18.1406H189.516V21.743H193.119V18.1406Z" fill="#C5941A"/>
<path d="M254.396 14.5742V54.1905H196.721V50.583H250.794V14.5742H254.396Z" fill="#C5941A"/>
<path d="M193.119 50.583H182.307V54.1854H193.119V50.583Z" fill="#C5941A"/>
<path d="M278.868 5.86883C278.868 9.01902 276.303 11.5885 273.153 11.5885C270.003 11.5885 267.434 9.02416 267.434 5.86883H270.954C270.954 7.08163 271.94 8.06317 273.148 8.06317C274.356 8.06317 275.342 7.07649 275.342 5.86883C275.342 4.66117 274.356 3.67449 273.148 3.67449H239.344C238.131 3.67449 237.15 4.66117 237.15 5.86883C237.15 7.07649 238.136 8.06317 239.344 8.06317C240.552 8.06317 241.538 7.07649 241.538 5.86883H245.059C245.059 9.01902 242.494 11.5885 239.344 11.5885C236.194 11.5885 233.629 9.02416 233.629 5.86883C233.629 2.7135 236.194 0.154297 239.344 0.154297H273.148C276.298 0.154297 278.863 2.71864 278.863 5.86883H278.868Z" fill="#C5941A"/>
<path d="M265.208 7.36426L263.41 10.9666H248.99L247.186 7.36426H265.208Z" fill="#C5941A"/>
<path d="M275.841 14.7793H272.239V18.3818H275.841V14.7793Z" fill="#C5941A"/>
<path d="M243.584 25.3505H232.771L234.575 21.748H241.78L243.584 25.3505Z" fill="#C5941A"/>
<path d="M279.474 25.3505H268.662L270.466 21.748H277.67L279.474 25.3505Z" fill="#C5941A"/>
</g>
</g>
<defs>
<clipPath id="clip0_7045_123">
<rect width="279" height="55" fill="white"/>
</clipPath>
</defs>
</svg>
