<svg width="745" height="161" viewBox="0 0 745 161" fill="none" xmlns="http://www.w3.org/2000/svg">
<g clip-path="url(#clip0_22_13558)">
<path d="M0.166181 134.275C1.38135 134.394 0.970587 132.079 1.30718 131.202C1.82063 128.394 4.18251 126.572 5.39197 124.115C7.41725 122.287 9.02036 119.932 11.5134 118.715C13.1907 119.315 12.5061 120.43 12.2494 121.811C11.5134 121.755 11.0456 122.021 10.9201 122.915C10.7946 123.809 10.2013 124.517 9.33413 125.015C9.34554 125.79 9.26567 126.555 8.56966 127.121C7.86224 129.283 6.55579 131.53 6.66989 133.941C6.64137 136.5 6.39035 139.307 8.31864 141.243C9.79053 142.704 9.72778 144.855 10.9658 146.355C12.0041 146.292 12.335 147.255 13.0253 147.679C15.5982 149.994 17.3497 148.053 20.0253 150.09C20.6186 150.39 21.172 150.894 21.7482 151.188C22.8037 151.013 23.6822 151.624 24.6578 151.8C25.1826 151.896 25.7931 151.619 26.1924 152.258C27.5217 152.371 29.1647 152.671 30.5054 151.862C31.5437 151.262 33.3522 152.513 34.2479 151.324C35.8282 150.905 37.591 151.788 39.0743 150.668C39.5536 150.271 40.3751 150.294 41.0312 150.096C42.3433 149.287 43.5528 148.33 45.2129 148.415C46.1942 148.432 47.2097 148.562 47.8715 147.555C50.0337 146.519 52.3271 145.222 54.0671 143.587C56.3035 139.924 61.4836 139.749 63.3606 135.662C64.9066 133.828 65.6768 131.309 67.6507 129.883C68.2269 129.521 68.6491 129.306 68.6092 128.553C69.1569 125.417 72.8822 124.053 73.196 120.872C73.1789 120.487 73.7893 120.113 73.9205 119.677C73.6239 116.513 77.6003 115.007 77.7144 111.979C77.7029 111.843 77.703 111.611 77.7714 111.577C78.7926 111.096 78.4332 110.157 78.5473 109.375C78.5701 109.211 78.6443 108.968 78.7641 108.911C80.0534 108.413 79.4145 107.128 79.8024 106.24C81.1317 103.63 79.1349 99.9396 81.4226 97.4717C83.2996 95.3774 81.7193 92.4793 83.3395 90.3001C82.9858 89.117 83.8701 88.4774 84.2637 87.5548C83.3965 85.9472 83.4593 85.4888 84.6916 83.9831C85.4047 83.1793 84.8627 81.985 86.0094 81.4812C85.1423 79.6586 83.6248 79.336 82.0216 79.9416C80.1618 78.9058 77.6231 79.8737 75.5065 79.5737C73.8692 79.602 73.3671 81.7869 71.4446 81.3058C70.663 81.2435 69.7787 81.0058 69.0827 81.7756C67.3769 81.9963 65.3345 81.7416 63.5545 81.8492C62.9327 81.8605 62.3108 81.6907 61.7346 82.285C60.8218 82.8058 59.1103 81.8605 58.2203 82.8114C58.1291 82.919 57.7012 82.919 57.5985 82.8114C56.8397 82.0133 55.8984 82.5397 55.0484 82.4265C54.2725 82.4605 54.107 83.6378 53.2228 83.5303C51.1347 83.6831 49.0182 83.2642 47.358 81.8265C46.0516 80.3378 46.3767 77.4963 48.2879 76.7945C49.5202 76.9473 50.4045 76.1718 51.4314 75.7586C54.1755 75.4303 57.0337 75.7416 59.812 75.6171C61.2098 75.6964 62.5276 74.5133 64.0623 75.3115C64.6613 75.5322 64.9922 75.6398 65.5684 75.2662C66.6466 74.8247 67.896 75.3171 69.037 74.6662C70.3492 73.8171 72.1691 75.6794 73.447 74.7171C75.7518 73.8907 78.7584 75.2379 80.892 74.1171C84.8856 73.036 88.0404 76.2171 88.0518 70.3134C89.1358 69.7643 88.668 68.7794 88.765 67.9587C88.7478 67.336 88.7022 66.7757 89.2898 66.3341C89.0559 65.236 89.7919 64.336 89.906 63.3115C89.9573 62.8247 89.7519 62.2757 90.3567 61.9304C90.7674 61.0417 90.0315 59.7059 91.0241 58.9361C90.7389 57.5097 91.6403 56.6832 92.5702 55.8568C93.3061 55.1493 93.7397 53.4512 93.1806 52.6587C92.5759 51.7927 93.2776 51.1701 93.329 50.4399C93.3347 50.338 93.6142 50.2248 93.5971 50.1512C93.4031 49.2116 94.082 48.6342 94.5099 47.9663C95.5482 46.2965 94.5727 44.2588 96.0217 42.6795C97.4366 41.4399 96.0731 39.1022 97.3852 37.7267C97.8759 37.1324 97.9557 36.4531 97.8816 35.7399C97.1114 33.5154 100.466 32.3098 99.4162 30.6117C98.5262 28.6928 100.791 27.1872 100.5 25.0758C100.437 23.3494 102.486 22.54 102.451 20.9551C102.371 20.3494 102.503 19.7042 103.096 19.523C104.134 19.2004 104.277 18.2438 104.887 17.5532C101.75 14.2193 105.441 14.8985 104.728 10.1495C107.591 10.4212 108.527 6.9797 110.992 6.01178C113.896 4.39292 116.748 2.71745 119.675 1.14954C120.177 0.894821 120.702 0.645766 120.742 -0.0221558H123.594C123.497 0.38539 123.634 0.640105 124.085 0.577841C125.848 0.300484 126.726 2.28727 128.495 2.24765C130.126 2.62689 132.254 1.61935 133.526 2.94387C135.672 4.86273 135.917 5.49669 134.936 8.27592C134.662 9.47025 133.332 10.0306 132.927 11.225C132.465 11.8476 131.456 11.9665 130.742 12.2155C130.531 12.2778 130.172 12.4136 130.109 12.3287C129.522 11.6042 128.717 11.9721 128.01 11.8589C125.722 11.3325 121.883 8.54762 120.12 11.1853C119.971 11.5929 119.578 12.2099 119.292 12.2099C118.18 12.2155 117.564 12.974 116.788 13.5174C115.145 13.608 117.273 16.0023 116.178 17.0947C115.327 18.9287 113.445 20.423 113.821 22.6249C113.827 22.6702 113.821 22.7494 113.799 22.7608C112.715 23.2136 113.103 24.3174 112.84 25.0985C111.42 28.4777 108.596 25.8683 108.732 28.7607C108.841 30.5154 107.363 31.8117 107.089 33.4135C106.319 33.889 106.405 34.6022 106.445 35.2984C106.702 38.106 104.739 40.4041 104.739 43.1833C104.899 44.904 102.64 45.7248 103.022 47.5757C103.307 49.1493 102.143 50.321 101.892 51.7701C101.801 52.7153 102.086 53.7059 101.356 54.5606C101.059 55.3191 101.67 56.3889 100.905 57.0964C100.574 58.3417 100.848 59.8134 99.8327 60.8945C98.5205 62.7681 99.3249 65.2643 98.0641 67.2398C97.9101 68.7285 98.0128 69.8379 96.5295 71.1454C96.0788 73.5398 101.031 72.8888 102.411 72.5549C102.959 71.9832 103.478 72.1983 104.054 72.4417C105.441 73.0417 107.004 72.6567 108.47 72.7813C109.217 72.736 110.056 73.1039 110.689 72.3001C113.456 72.0794 116.508 72.3171 119.338 72.2209C119.863 72.2209 120.468 72.4303 120.85 71.7737C122.191 71.4794 123.936 71.7737 125.363 71.6492C125.979 71.6322 126.635 71.8756 127.177 71.2134C127.342 71.0096 128.095 71.1115 128.489 71.2813C130.029 72.2266 131.456 70.9586 133.218 71.0945C133.874 71.0209 134.599 71.3605 135.164 70.6303C135.666 70.2624 136.852 70.9813 137.44 71.0832C141.148 71.4341 144.651 70.5737 148.302 70.5228C148.879 70.5058 149.546 70.7549 149.934 70.053C149.963 69.9964 150.117 69.9568 150.191 69.9794C151.309 70.3303 152.159 69.3568 153.226 69.3737C154.818 68.5417 154.983 67.2851 157.402 67.7039C159.496 67.3473 160.785 69.1926 162.468 69.9171C163.187 70.6813 162.816 71.6209 162.85 72.4813C162.902 73.8794 162.702 73.8058 161.601 74.485C159.307 74.9379 156.917 76.2963 154.806 75.102C153.916 75.2492 153.032 76.2737 151.765 76.1379C150.847 77.2416 149.592 76.5624 148.496 76.7209C148.114 76.7775 147.681 76.8624 147.367 76.3756C146.431 75.9284 145.091 76.302 144.035 76.1605C143.373 76.1265 142.626 76.4435 142.095 75.6907C141.993 75.5435 141.559 75.6115 141.28 75.6115C139.899 75.8209 138.165 75.0907 137.041 76.0303C136.938 76.1832 136.516 76.1492 136.242 76.1718C135.706 76.2114 135.095 76.002 134.736 76.6416C133.332 76.8284 131.923 77.0039 130.634 77.7341C127.776 77.7058 127.125 75.3454 124.022 77.8303C121.66 78.3228 119.275 76.4265 117.153 77.9209C117.478 77.1228 105.081 76.9586 104.574 77.6718C104.277 77.9492 103.598 77.8643 103.09 77.8529C101.339 77.819 100.415 79.9133 98.4578 79.5737C95.8449 79.285 94.4472 80.1397 93.8196 82.6586C92.9011 83.6491 92.787 84.8774 92.5873 86.1227C91.8057 87.0397 92.1252 88.0982 92.3078 89.0548C92.6273 89.9095 92.1138 90.5548 92.1537 91.4378C92.0853 92.6038 90.8017 93.1019 91.0241 94.2736C91.2181 97.4434 88.2629 100.121 89.558 103.353C89.3126 104.508 88.5995 105.623 88.725 106.941C88.7022 107.275 88.4911 107.649 88.2629 107.904C86.7169 109.398 87.2988 111.634 86.1692 113.389C85.7698 114.232 84.9426 114.894 85.0681 115.97C85.0795 116.083 84.9825 116.264 84.8856 116.326C83.7046 117.034 83.9442 118.313 83.6133 119.36C83.5221 119.66 83.4593 120.09 83.2425 120.209C82.0502 120.855 82.2099 122.083 81.9475 123.096C81.8733 123.99 81.1602 124.438 80.7779 125.19C76.1569 132.996 71.0167 140.479 64.0509 146.513C60.394 149.779 55.984 152.066 51.6482 154.307C49.6628 155.287 48.4819 157.97 46.1143 158.004C44.4884 158.122 42.5772 157.454 41.1795 158.456C40.4949 158.768 39.1257 158.219 38.4011 158.954C37.5055 159.481 35.7597 158.547 34.9667 159.577C34.265 159.866 33.221 159.339 32.6334 160.16C32.525 160.307 32.0914 160.211 31.8119 160.239C30.4484 160.387 28.9879 159.826 27.7157 160.777C27.5616 160.89 27.2536 160.8 27.014 160.8C21.6569 161.417 20.8183 159.079 16.6537 156.968C14.5086 156.724 11.9641 156.668 10.2298 155.015C9.78483 154.596 9.78483 154.596 8.5012 154.545C7.9307 152.405 6.08227 150.86 4.78153 149.145C1.54679 147.464 0.508482 146.722 0.959177 142.811C0.959177 142.455 0.919242 142.143 0.445727 142.16C-0.164709 142.262 0.285986 141.356 0.154771 141.005C0.434317 140.904 1.13603 141.039 1.00482 140.592C-0.99764 140.105 0.679632 136.03 0.154771 134.236L0.166181 134.275Z" fill="black"/>
<path d="M0.16749 140.479C0.47556 140.604 1.12593 140.44 1.01754 140.898C0.47556 140.989 0.0191595 141.221 0.16749 140.479Z" fill="#D9D8D8"/>
<path d="M0.166992 142.172C0.59597 142.161 0.381481 142.263 0.166992 142.456C0.166992 142.359 0.166992 142.269 0.166992 142.172Z" fill="#BEBEBE"/>
<path d="M209.659 119.91C208.815 119.712 208.199 118.908 207.218 119.049C206.379 118.834 205.968 117.6 205.689 116.893C205.557 116.276 205.358 115.517 206.077 114.951C206.151 112.653 207.007 110.932 209.602 110.638C211.65 110.417 213.853 111.068 215.69 109.942C217.184 109.229 216.368 107.944 214.931 108.385C213.881 108.561 212.94 108.187 212.147 107.666C211.006 106.953 209.819 107.355 208.581 107.242C208.096 107.225 207.554 107.417 207.183 106.84C207.086 106.687 206.664 106.693 206.39 106.693C202.574 105.991 199.961 107.938 197.228 109.998C196.498 110.497 195.676 110.859 194.952 111.334C194.398 113.327 192.116 113.344 191.352 115.172C190.536 116.078 189.686 116.955 188.808 117.804C187.341 118.115 185.316 118.24 183.924 117.855C181.345 116.434 178.379 112.829 179.834 109.795C179.417 109.342 178.921 108.81 178.299 108.142C177.928 109.681 176.49 109.908 175.652 111.181C175.093 111.73 174.465 112.155 174.539 113.146C174.568 113.547 173.912 113.995 173.472 114.544C173.632 115.393 173.33 116.089 172.246 116.417C171.413 116.746 170.917 118.093 169.821 117.94C169.65 117.912 169.342 117.929 169.296 118.025C168.897 118.851 168.155 118.461 167.556 118.54C167.231 118.585 166.775 118.427 166.581 118.591C165.371 119.627 164.641 118.472 163.791 118.019C158.611 115.783 163.158 111.442 159.444 107.547C159.113 106.347 159.193 105.719 157.732 104.995C157.339 106.625 156.141 107.553 154.777 108.363C154.081 108.708 153.727 109.704 153.282 110.197C152.256 110.525 152.01 111.566 151.309 112.166C150.002 113.259 148.382 114.142 147.389 115.5C144.902 117.419 142.837 120.295 139.579 120.861C137.24 121.33 134.992 122.666 132.841 123.527C131.643 123.855 130.211 123.136 129.025 123.561C128.272 123.549 127.502 123.912 126.788 123.193C126.457 122.864 125.739 122.949 125.231 122.757C123.325 122.429 122.618 120.968 121.614 119.649C121.762 117.21 118.111 115.24 120.256 112.998C119.526 111.94 119.087 110.949 120.028 109.817C120.37 108.968 119.988 107.712 120.119 106.772C121.568 106.461 121.135 104.163 122.207 103.212C122.635 101.712 122.173 100.008 123.731 98.9494C124.489 98.2815 125.254 97.2796 126.109 96.7645C127.376 96.6286 128.129 95.4909 129.264 95.1909C131.204 94.2456 133.218 93.7588 135.317 93.1645C135.831 93.04 136.475 93.3739 136.806 92.6777C136.835 92.6211 136.983 92.5872 137.069 92.5985C138.849 92.8928 140.446 91.6532 142.249 91.9985C142.888 92.123 143.755 92.2589 144.206 91.9475C145.301 91.1834 146.448 91.5513 147.566 91.4664C148.011 91.4324 148.547 91.3136 148.69 92.0041C148.713 92.1117 148.981 92.2475 149.123 92.2362C149.814 92.1683 150.339 92.5192 150.949 92.7683C152.512 93.4136 152.912 94.7381 153.18 96.1362C153.596 98.5984 150.778 104.536 155.365 99.8381C156.192 99.0173 155.97 97.6984 156.409 96.6739C156.808 95.5815 157.892 94.54 158.052 93.3739C158.212 91.557 160.1 91.3023 161.412 90.5438C163.329 91.1438 164.076 92.9607 165.331 94.3305C165.982 96.6852 163.517 97.5003 165.149 100.698C164.886 103.506 167.362 105.736 166.872 108.572C167.191 112.591 173.684 104.972 174.037 103.178C175.178 101.338 176.325 99.5211 177.455 97.6702C177.512 97.5456 177.671 97.4211 177.654 97.3135C177.449 95.9324 178.185 95.0041 179.212 94.3305C178.966 92.6721 177.62 91.823 180.239 91.9702C180.256 90.3513 181.471 89.2759 182.064 87.9174C182.15 87.7249 182.532 87.5664 182.783 87.5494C184.09 87.4815 185.476 87.1928 186.377 88.5626C186.56 88.84 186.788 89.0777 187.125 89.4909C186.834 90.5381 187.878 91.3419 188.368 92.4853C187.244 94.1494 185.681 95.8702 185.693 98.0154C186.143 100.744 184.147 106.268 187.632 107.225C188.226 106.059 189.578 107.157 190.433 106.223C191.135 105.306 192.921 105.51 193.657 104.553C194.056 103.517 194.832 102.906 195.922 102.595C196.002 100.659 194.547 98.8418 195.682 96.8324C197.553 93.0173 199.584 88.4494 203.829 86.8306C204.85 86.2928 206.134 86.8136 206.978 85.8853C208.205 86.0777 209.1 85.2627 210.281 85.2287C210.623 84.9513 211.804 84.5381 212.141 84.8098C212.712 85.3645 213.345 85.274 213.978 85.24C217.076 85.5061 217.544 89.2815 217.618 91.7438C217.572 94.857 213.659 94.2287 212.563 97.0758C211.953 96.9852 211.548 97.3362 211.599 98.0834C210.669 98.2475 210.139 98.7683 210.218 99.7362C213.659 100.308 216.796 101.627 220.219 101.666C220.818 101.757 221.332 102.38 221.828 102.844C223.078 102.872 224.002 103.766 225.342 103.88C226.038 104.032 226.312 103.432 226.734 103.087C227.579 102.793 227.716 102.215 227.659 101.344C228.326 100.936 228.691 100.478 228.868 99.623C229.245 98.5192 230.791 97.6871 231.749 96.9513C235.041 94.0645 239.902 94.5117 243.861 93.623C246.371 93.34 248.83 91.6985 251.192 93.2607C251.774 93.7079 252.96 94.4041 253.725 93.1249C254.792 93.323 255.168 92.2022 256.035 91.9249C256.982 91.6589 257.713 90.6853 258.648 90.3513C260.097 90.2494 261.626 90.1079 262.841 90.9853C263.634 91.9815 264.405 94.2117 263.851 95.5022C262.642 97.1211 262.071 99.1588 260.502 100.5C259.145 101.915 256.8 102.272 256.121 104.264C255.71 105.425 254.621 106.37 254.666 107.649C256.361 108.063 260.776 105.912 261.05 103.931C263.207 103.631 263.749 100.812 264.958 99.3116C265.306 97.2003 268.25 96.5947 267.782 94.2796C267.736 93.9626 267.805 93.6287 267.828 93.2211C269.773 92.3211 268.598 89.5758 268.906 87.8494C268.33 84.8325 272.101 83.9381 271.775 81.1419C271.61 79.2853 271.804 77.4118 272.106 75.5778C273.567 74.6891 272.534 73.0816 273.162 71.8986C274.85 69.5382 274.622 66.759 274.617 63.9514C275.256 61.2967 273.943 58.6647 275.073 56.1005C275.421 55.5175 275.449 54.4307 274.845 53.593C273.339 49.3138 278.017 46.5911 281.799 46.6081C285.023 48.0572 282.079 50.4232 283.648 52.2288C283.91 55.8571 282.98 59.0496 283.157 62.6099C283.163 63.1024 282.986 63.6628 283.573 63.9854C283.836 65.2024 283.619 66.6118 283.722 67.8967C283.853 70.2514 281.28 71.3495 281.457 73.7382C281.234 74.2929 281.622 75.1759 281.4 75.691C280.692 76.3533 280.761 77.3382 280.327 78.0967C278.838 79.9702 280.727 82.1212 279.489 83.3042C281.514 84.34 280.173 85.4721 280.31 87.2494C280.476 88.5117 279.665 89.1909 278.741 89.6721C277.018 90.7758 276.699 93.057 275.558 94.5739C275.124 95.1739 275.307 95.6834 275.284 96.1758C275.221 97.3249 274.691 98.5701 275.666 99.6343C275.969 100.574 275.489 101.598 276.191 102.555C276.556 103.093 276.596 104.1 275.723 104.729C276.374 105.334 276.625 106.5 276.796 107.253C276.836 109.246 279.283 113.31 281.457 112.053C281.565 111.985 281.679 111.793 281.754 111.81C283.859 112.223 287.053 109.212 288.851 107.995C289.803 106.659 289.444 104.78 289.393 102.98C289.278 97.789 293.569 93.8381 296.758 90.2098C299.177 87.1589 303.792 85.7947 307.147 87.9287C307.512 89.2589 309.28 89.9494 308.835 91.6872C308.253 92.8079 310.33 94.0079 308.892 94.9928C307.34 96.7588 309.292 97.0192 306.296 99.2041C306.901 101.344 304.123 102.034 304.243 103.908C304.99 106.619 301.219 107.31 301.812 110.083C306.633 110.497 311.094 107.819 314.346 104.372C315.915 103.104 315.721 100.981 317.062 99.5041C318.665 98.0211 317.849 95.5588 319.504 94.1664C319.937 92.5588 320.177 90.7758 320.559 89.123C321.5 88.5966 320.679 87.1419 321.848 86.706C321.843 83.4117 322.852 85.1721 323.035 83.2702C322.761 81.7249 323.953 80.6381 324.187 79.2174C324.262 78.6797 324.085 78.1136 324.672 77.7004C325.26 75.957 324.005 73.5344 325.283 72.0005C325.528 71.1797 324.986 70.025 326.144 69.5552C326.31 69.4759 326.469 69.1703 326.464 68.9778C326.755 66.2665 327.319 63.6401 327.057 60.8665C327.057 58.3533 330.588 56.542 332.773 57.4024C334.148 57.7703 334.394 59.2816 335.421 60.0175C335.871 61.3137 335.495 62.9439 335.597 64.3307C334.143 66.5269 335.923 69.2382 334.588 71.3325C334.382 72.7816 334.61 74.4061 333.549 75.6797C333.447 75.8325 333.31 76.0476 333.35 76.1835C333.663 77.225 332.996 78.1023 332.665 78.9231C332.317 79.7834 332.46 80.8363 331.695 81.5608C331.518 81.7249 331.621 82.1891 331.621 82.5174C331.958 87.0004 330.919 91.9192 332.043 96.1702C332.328 96.4305 332.209 97.1154 332.3 97.8683C333.384 96.4475 335.101 96.1305 335.472 94.3022C336.219 93.3626 336.955 92.5985 337.765 91.4551C338.125 91.3928 338.735 91.489 339.317 90.9909C340.407 90.2155 341.559 91.7721 342.592 91.4268C343.276 91.2909 343.613 92.0494 344.406 91.8513C345.256 91.6362 346.249 91.9362 347.173 92.0211C347.749 92.0777 348.388 91.8117 348.856 92.4683C353.517 92.2022 350.824 95.3607 354.43 96.0966C353.996 97.5739 355.297 98.7173 354.994 100.138C355.947 101.061 355.308 102.708 356.569 103.506C356.809 104.01 356.723 104.853 357.054 105.346C358.184 106.444 357.162 109.047 359.273 108.951C359.872 108.934 360.557 108.787 360.814 109.681C362.023 109.076 363.278 108.629 364.185 107.564C365.138 106.319 364.527 104.542 364.664 103.07C364.636 102.317 364.779 101.695 365.412 101.214C366.467 99.7418 367.129 97.54 368.39 95.8645C369.103 93.6739 370.917 94.2456 371.887 92.9041C372.486 91.574 373.986 91.1777 375.139 90.4815C376.04 89.8475 376.942 90.4306 377.82 90.3117C378.921 90.1589 379.577 90.7475 380.273 91.4211C382.647 92.7117 384.649 95.0211 384.039 97.8966C383.913 98.689 383.799 99.5947 383.348 100.195C382.567 101.417 383.092 102.702 382.898 103.998C382.852 104.383 382.721 104.881 382.447 105.097C381.249 106.098 381.973 107.746 381.779 109.081C381.779 110.644 381.654 110.813 380.108 111.391C379.914 112.625 380.285 113.236 381.637 112.772C382.093 112.512 382.96 112.189 382.983 111.306C384.432 111.04 385.197 109.998 386.041 108.98C387.884 106.902 389.789 104.536 390.097 101.672C390.942 101.083 390.234 99.7305 391.312 99.2267C391.541 98.1626 391.638 96.7871 390.999 95.6494C390.388 93.8098 389.949 91.4155 389.264 89.5702C390.542 88.2004 388.973 86.3155 390.24 84.9683C390.417 84.8155 390.32 84.34 390.32 84.0174C390.559 81.9117 389.778 79.6136 390.759 77.6778C391.204 76.4948 390.502 74.6948 391.632 73.5854C392.727 72.5438 392.459 70.942 392.784 69.674C393.794 68.8759 393.224 67.6759 394.279 66.8778C396.282 63.5779 392.796 62.6495 394.519 59.2873C395.529 59.4118 395.038 57.6967 396.076 57.3854C398.25 55.642 403.379 56.3552 403.453 59.576C403.088 61.608 405.398 61.4722 403.612 63.8156C402.523 65.0495 403.327 66.6401 402.466 67.8684C402.3 68.0099 402.295 68.3948 402.312 68.6608C402.42 70.942 400.258 72.4533 400.692 74.8816C400.811 78.2382 400.583 81.657 400.589 85.0532C400.538 85.7721 400.794 86.5249 400.127 87.1645C399.841 89.9438 400.001 93.023 400.064 95.8645C400.138 97.0985 400.315 98.4569 401.427 99.3796C402.181 102.125 403.704 104.559 404.913 107.157C405.324 108.046 405.706 108.289 406.853 108.261C406.996 106.834 406.454 105.419 407.344 104.095C407.72 103.642 407.635 102.77 407.652 102.08C408.935 96.7418 415.205 90.6796 420.893 91.4721C423.072 91.3872 424.898 93.3343 426.997 93.9683C428.481 94.5456 428.412 96.4305 429.998 96.7928C430.911 97.1268 430.415 97.9135 430.631 98.6154C432.754 100.166 433.005 103.563 435.287 105.221C436.04 105.929 437.409 106.059 437.432 107.349C437.432 107.576 437.757 107.927 438.008 108.012C439.611 108.561 440.541 109.806 441.391 111.136C443.319 115.885 444.968 112.84 447.615 114.521C447.826 114.725 448.602 114.515 449.019 114.306C449.829 113.904 450.588 113.463 451.546 113.44C452.339 113.417 453.235 113.757 453.896 112.936C454.41 112.647 455.551 113.287 455.985 112.495C456.087 112.319 456.584 112.342 456.903 112.336C458.82 112.195 460.868 112.557 462.694 112.127C463.401 111.487 464.034 111.651 464.685 112.313C464.816 112.2 464.941 111.991 465.078 111.98C469.129 110.53 473.602 111.453 477.869 111.187C478.388 111.187 478.993 111.442 479.392 110.763C479.489 110.593 480.008 110.666 480.333 110.632C481.212 110.542 482.102 110.802 482.975 110.349C484.338 110.491 486.033 110.678 487.459 110.621C487.887 110.542 488.286 110.304 488.646 110.1C490.015 110.355 491.224 109.563 492.536 109.517C494.79 109.132 497.5 110.23 499.457 109.008C500.946 108.804 502.845 108.98 504.409 108.946C507.307 108.861 510.205 109.013 513.103 108.929C513.668 108.912 514.33 109.195 514.757 108.487C516.321 108.04 518.392 108.878 519.949 107.961C523.971 107.208 528.564 107.989 532.717 107.813C533.846 107.18 534.976 107.847 536.106 107.836C543.488 107.881 551.281 107.502 558.315 108.204C559.896 107.327 561.681 107.995 563.427 107.825C564.14 107.847 564.944 107.547 565.515 108.306C565.589 108.408 565.88 108.402 566.057 108.374C568.915 108.844 571.693 106.93 574.517 108.221C574.729 108.351 575.145 108.408 575.328 108.289C576.28 107.649 577.17 107.547 578.106 108.323C579.407 108.312 581.078 108.798 582.276 107.842C582.379 107.746 582.659 107.78 582.83 107.83C584.102 107.966 585.203 108.9 586.401 108.946C589.134 109.217 592.072 108.346 594.645 109.398C595.552 110.015 597.651 108.866 598.547 109.97C601.2 110.604 605.798 109.313 608.171 110.502C608.285 110.678 608.787 110.638 609.107 110.638C611.292 110.944 613.831 109.953 615.753 111.153C616.917 111.34 618.606 111.119 619.861 111.215C620.352 111.227 620.888 111.04 621.276 111.617C622.428 112.127 624.294 111.3 625.492 112.246C625.931 112.563 626.553 112.087 627.203 112.234C628.384 112.5 629.514 113.253 630.814 112.902C632.355 113.904 634.083 113.298 635.727 113.463C637.444 114.323 639.389 113.955 641.209 114.029C641.831 114.102 642.527 113.796 643.023 114.493C643.582 114.849 644.792 114.17 645.225 115.036C645.282 115.138 645.59 115.189 645.75 115.144C647.93 114.713 649.607 116.434 651.723 116.298C653.018 116.847 654.131 117.657 655.654 117.43C656.407 117.447 657.263 117.102 657.885 117.906C658.507 118.206 659.596 117.595 660.098 118.438C661.08 118.71 662.671 118.444 663.761 118.551C664.252 118.568 664.799 118.364 665.17 118.953C665.267 119.106 665.689 119.072 665.963 119.106C667.127 119.259 668.393 118.721 669.466 119.644C669.631 119.785 670.019 119.655 670.305 119.678C670.932 119.723 671.645 119.446 672.102 120.159C672.153 120.238 672.381 120.266 672.501 120.232C673.762 119.87 674.794 120.815 675.987 120.815C676.808 121.789 678.269 120.946 679.13 121.902C679.809 122.213 681.19 121.466 681.772 122.395C682.348 122.751 683.495 122.106 683.991 122.921C684.088 123.074 684.51 123.051 684.784 123.062C686.895 123.029 689.028 122.983 690.928 124.093C691.898 124.41 693.267 123.957 694.186 124.613C695.806 125.927 697.86 124.783 699.645 125.802C700.741 126.527 702.971 125.117 703.964 126.351C705.904 126.413 707.775 127.245 709.606 127.987C710.61 128.434 711.78 127.687 712.641 128.644C714.016 128.825 715.859 128.695 717.314 128.7C719.39 128.564 720.919 130.189 723.002 129.827C724.873 129.623 726.288 131.083 728.119 130.964C729.186 131.004 730.315 130.721 731.154 131.712C732.626 132.102 734.423 132.323 735.958 132.657C736.534 132.725 737.099 132.532 737.652 133.081C738.32 133.67 740.419 132.51 740.487 134.061C741.589 133.783 742.29 134.259 742.901 134.995C744.749 136.37 746.016 139.132 743.745 140.819C742.889 141.493 743.055 142.557 741.629 142.291C741.372 143.644 740.784 144.798 739.244 145.047C737.567 146.111 734.8 146.977 734.651 144.04C734.469 142.483 735.998 140.757 733.904 139.936C732.033 138.068 729.18 138.77 727.326 137.01C726.122 136.076 724.588 137.219 723.447 136.076C722.066 136.053 720.828 135.691 719.619 135.017C718.386 134.762 717.063 135.017 715.796 134.904C715.135 134.876 714.381 135.193 713.862 134.423C713.765 134.281 713.309 134.31 713.041 134.361C711.82 134.604 710.645 133.778 709.686 133.257C707.901 133.511 706.309 132.323 704.5 132.634C703.228 132.855 702.019 132.566 700.929 131.757C698.356 131.553 696.034 130.693 693.57 129.883C692.674 129.651 691.624 130.047 690.826 129.278C688.133 129.487 685.571 127.987 682.981 127.574C682.234 127.483 681.384 127.891 680.768 127.07C679.307 126.872 677.744 127.098 676.238 127.002C675.662 126.991 675.045 127.195 674.566 126.566C674.418 126.368 673.853 126.493 673.482 126.442C672.461 126.306 671.326 126.832 670.43 125.915C669.563 125.813 668.587 126.079 668.034 125.117C667.315 124.517 666.22 124.761 665.336 124.761C663.538 125.168 662.397 123.442 660.703 123.612C660.481 123.629 660.104 123.6 660.047 123.481C659.026 122.355 657.36 123.702 656.15 122.57C655.186 122.066 653.828 123.057 652.939 122.083C652.031 121.546 650.691 122.513 649.978 121.478C649.196 122.083 648.517 121.132 647.713 121.33C647.188 121.461 646.526 121.551 646.053 120.912C645.91 120.713 645.339 120.844 644.969 120.798C643.947 120.668 642.818 121.178 641.911 120.278C641.791 120.159 641.454 120.255 641.215 120.232C640.502 120.17 639.714 120.476 639.149 119.723C638.414 119.479 637.586 119.978 636.925 119.23C635.858 118.715 634.454 119.678 633.479 118.625C632.372 118.2 631.014 119.095 630.021 118.042C628.652 117.685 627.209 118.41 625.874 117.651C624.727 118.223 623.695 117.374 622.571 117.391C618.532 117.453 614.492 117.419 610.459 117.408C609.968 117.408 609.415 117.578 609.073 116.989C609.01 116.881 608.73 116.859 608.554 116.859C607.042 116.938 605.587 116.525 604.201 117.289C604.155 115.721 602.672 116.468 601.462 116.276C600.709 116.23 599.842 116.604 599.26 115.772C597.092 115.817 594.633 115.263 592.608 116.236C590.754 115.24 588.455 115.863 586.418 115.721C585.134 114.595 583.406 115.63 582.031 114.861C581.706 114.696 580.804 115.229 580.445 115.093C579.703 114.521 579.019 114.895 578.3 115.24C577.781 114.685 577.273 114.187 576.566 114.996C575.35 115.364 573.918 115.076 572.629 115.149C572.23 115.144 571.762 115.308 571.517 114.781C571.471 114.685 571.283 114.612 571.157 114.612C568.972 114.119 567.284 115.229 565.264 115.144C564.186 114.934 563.073 114.832 562.018 115.144C560.626 114.583 559.228 115.489 557.91 114.838C556.843 114.04 555.759 115.376 554.721 115.019C552.519 113.802 550.494 115.115 548.434 115.155C547.898 115.144 547.282 115.347 546.928 114.702C546.894 114.646 546.757 114.606 546.677 114.612C543.859 114.295 541.018 115.342 538.365 114.21C537.926 113.898 536.796 113.836 536.516 114.147C535.837 114.9 534.662 114.198 534.183 115.132C533.533 114.991 532.877 114.844 532.084 114.674C531.062 114.81 530.452 115.981 529.305 115.342C527.668 114.555 525.711 116.072 523.789 115.58C523.549 114.963 523.001 115.183 522.562 115.166C520.759 115.138 518.951 115.166 517.148 115.161C514.37 115.534 511.146 114.368 508.67 115.636C508.539 115.806 508.043 115.721 507.712 115.721C504.574 115.93 501.254 115.161 498.396 116.287C497.591 116.355 496.724 116.044 496.039 116.796C494.339 117.119 492.314 116.429 490.665 117.181C489.171 118.161 488.069 116.344 486.632 117.085C485.833 117.357 485.257 118.183 484.276 117.985C482.427 117.447 480.271 117.606 478.177 117.623C477.88 118.189 477.344 117.968 476.905 117.974C475.199 117.996 473.499 117.985 471.702 117.985C471.907 119.983 469.055 118.851 467.771 119.095C467.178 118.976 465.717 118.319 465.221 118.698C464.742 119.253 464.217 119.095 463.692 119.106C461.963 119.389 459.944 118.495 458.478 119.604C457.28 119.836 455.791 119.581 454.518 119.683C453.942 119.7 453.275 119.451 452.87 120.136C451.249 120.193 449.692 121.081 447.992 120.821C447.41 120.623 446.925 120.804 446.514 121.308C445.27 121.042 444.261 122.044 443.046 121.93C441.169 122.049 439.286 121.744 437.466 121.71C436.873 121.936 436.331 122.055 435.823 121.506C434.494 121.319 433.085 120.668 433.096 119.134C433.21 117.459 433.261 112.749 430.763 115.415C424.036 121.585 424.059 125.91 413.562 123.583C413.163 123.51 412.701 122.774 412.335 122.757C411.349 122.938 410.904 122.23 410.35 121.687C407.937 119.004 405.216 116.774 402.266 114.832C399.767 111.957 396.43 109.297 396.612 105.108C393.463 104.712 395.563 106.364 393.446 108.798C392.87 109.353 393.098 110.191 392.687 110.774C392.037 111.215 392.003 111.832 392.031 112.512C391.449 114.532 389.59 116.372 387.924 117.634C386.942 118.251 385.933 119.089 384.603 119.083C383.919 119.253 383.114 120.232 382.441 120.176C380.541 119.904 378.847 121.07 376.964 120.815C375.898 120.532 374.563 121.268 373.69 120.447C372.6 119.819 370.672 120.764 369.679 119.808C369.074 118.738 367.888 119.372 367.038 118.874C365.469 117.974 364.328 116.049 362.531 115.71C360.962 115.97 359.045 115.212 357.699 116.1C357.111 116.553 355.919 115.913 355.388 116.706C355.28 116.859 354.863 116.842 354.584 116.842C350.733 117.13 346.665 116.304 342.951 117.204C342.227 117.266 341.365 117.487 340.812 117.181C338.284 116.366 335.58 117.396 333.236 115.857C332.271 115.478 331.855 113.893 330.571 114.006C329.636 113.989 328.614 114.34 327.799 113.502C327.656 113.361 327.251 113.446 326.966 113.468C325.99 113.695 325.625 112.613 324.826 112.347C323.862 112.098 323.566 111.481 323.611 110.57C323.229 108.674 324.946 107.406 324.775 105.532C324.809 104.689 324.416 103.744 325.26 103.036C325.34 102.968 325.323 102.77 325.323 102.629C325.585 98.9494 325.209 95.9947 323.354 101.315C322.698 101.706 321.985 102.38 321.711 103.104C320.65 103.783 320.719 104.814 320.77 105.855C320.816 106.789 319.909 107.01 319.412 107.678C319.703 109.613 317.182 110.389 316.548 112.104C315.265 114.272 312.367 114.883 310.227 115.721C309.64 115.755 309.012 115.557 308.567 116.196C308.464 116.344 308.031 116.27 307.746 116.287C307.255 116.321 306.759 116.191 306.348 116.7C306.182 116.904 305.64 116.808 305.27 116.853C303.706 116.496 302.109 118.155 300.563 117.323C297.408 116.242 294.926 117.663 292.701 114.063C291.173 114.94 289.432 115.28 288.371 116.491C287.784 117.849 286.608 118.879 285.462 119.604C284.475 119.536 283.75 120.13 282.974 120.561C282.347 120.912 281.463 120.481 281 121.251C280.013 120.244 278.736 121.121 277.652 120.713C277.264 119.225 275.689 118.919 274.52 118.183C272.369 116.927 270.834 114.985 269.037 113.332C267.645 112.534 266.373 111.866 266.595 110.015C266.344 108.974 264.793 109.597 264.353 110.259C263.823 110.893 263.246 111.47 262.408 111.113C260.856 112.217 259.966 114.346 258.146 114.583C256.971 114.255 256.075 115.325 254.946 115.172C254.227 116.066 253.206 115.744 252.333 115.681C250.376 115.512 248.533 114.566 246.862 113.723C244.842 113.813 246.81 110.853 244.574 111.221C243.638 111.261 242.617 110.842 241.784 111.697C241.619 111.866 241.145 111.759 240.814 111.759C237.157 111.442 233.175 112.495 229.747 111.074C229.216 110.853 228.668 110.678 227.944 110.412C227.898 111.057 227.927 111.47 227.824 111.855C227.408 113.032 226.598 114.3 225.742 115.149C223.865 116.621 221.72 117.396 219.546 118.415C219.152 118.772 218.177 118.483 217.469 118.529C216.853 118.574 216.163 118.279 215.661 118.976C214.919 119.378 213.447 118.613 212.774 119.57C211.976 119.734 210.549 119.734 209.642 119.904L209.659 119.91ZM379.235 112.37C378.254 112.313 377.512 112.234 377.9 113.457C378.408 113.089 379.954 112.908 379.235 112.37ZM335.164 107.938C337.058 107.434 338.33 108.498 340.047 108.374C341.063 108.289 341.622 109.178 342.529 108.912C343.373 108.436 344.189 108.844 345.056 108.906C345.604 108.861 346.117 108.436 346.671 108.391C348.679 108.215 348.719 108.204 348.725 106.24C348.668 105.515 348.97 104.627 348.2 104.185C346.631 102.764 348.901 100.331 345.222 98.7796C341.439 98.1456 338.821 100.619 336.539 103.302C336.311 104.389 336.505 105.747 335.289 106.653C334.884 107.327 335.027 107.83 333.966 108.142C334.622 108.391 334.981 108.51 335.164 107.938ZM151.257 103.523C148.827 104.281 145.78 102.702 146.328 106.461C146.539 108.289 145.033 108.459 143.521 108.368C140.418 108.227 141.051 103.755 141.564 101.655C141.912 100.704 143.219 100.71 144.012 100.263C143.995 99.3852 145.176 98.7173 144.377 97.6532C143.105 97.7607 141.559 97.2569 140.617 98.4343C139.414 99.9682 137.531 99.872 135.791 99.9796C125.174 104.168 132.077 102.923 127.65 107.327C127.102 107.774 127.108 108.481 127.456 108.804C128.791 110.049 124.369 113.644 129.47 115.63C130.559 115.563 131.478 116.779 132.59 116.089C134.085 114.476 136.396 115.947 137.782 114.436C137.999 114.136 138.484 114.029 138.877 113.819C138.946 112.172 140.252 113.61 141.559 111.821C142.129 111.295 142.774 110.655 143.481 110.491C145.952 109.851 147.161 107.649 148.992 106.144C150.236 105.578 150.698 104.853 151.269 103.529L151.257 103.523ZM246.154 100.466C244.523 100.676 243.079 99.906 241.761 100.993C240.911 100.755 240.369 101.547 239.588 101.615C237.157 101.621 235.794 102.974 234.47 104.881C235.703 105.187 236.958 104.576 237.933 105.527C238.008 105.6 238.213 105.527 238.35 105.549C241.505 104.864 245.567 104.395 246.154 100.466ZM414.018 105.963C419.758 104.961 416.871 100.976 422.547 101.598C423.517 101.559 423.677 101.4 423.934 100.398C423.466 100.042 422.958 99.7815 422.627 99.3796C421.72 98.1003 420.34 99.2154 419.181 99.2437C417.384 99.7079 415.935 101.825 415.245 103.415C415.182 104.564 414.178 104.904 414.013 105.963H414.018ZM417.544 116.7C419.204 117.198 419.963 115.976 421.275 115.698C422.137 115.744 422.599 115.263 423.032 114.725C426.781 111.221 425.326 106.63 423.529 110.847C422.781 112.8 421.281 112.964 419.318 112.987C419.917 114.702 418.588 115.523 417.544 116.7ZM371.653 106.738C372.977 106.812 374.289 105.968 374.642 104.774C374.859 102.714 377.227 101.468 376.474 99.3116C375.339 99.255 374.962 100.336 374.118 100.795C374.528 102.731 372.035 103.087 371.653 106.738ZM207.434 94.189C207.292 92.4739 206.858 93.2154 205.98 94.189C206.579 94.189 206.898 94.189 207.434 94.189ZM300.243 97.9532C299.73 98.4117 299.388 98.723 298.812 99.2437C300.278 99.3003 300.335 99.3852 300.243 97.9532Z" fill="black"/>
<path d="M167.493 75.7306C167.516 73.908 166.124 75.1532 165.993 72.7419C165.748 71.4797 165.702 70.0589 166.541 68.9212C167.1 68.7797 167.722 68.9099 168.349 68.3495C169.975 67.4438 172.451 66.5778 174.157 68.0495C174.824 68.6212 174.414 69.8438 175.612 69.691C177.688 69.5608 177.021 71.6721 177.124 73.0249C176.781 77.174 170.437 76.5796 167.493 75.7363V75.7306Z" fill="black"/>
<path d="M115.601 77.5818C115.852 77.4686 115.955 77.6951 116.035 77.8875C115.818 78.1479 115.727 77.7743 115.601 77.5818Z" fill="#C1C1C1"/>
<path d="M209.66 119.91C209.842 119.887 210.03 119.87 210.213 119.848C210.025 120.295 209.928 120.323 209.66 119.91Z" fill="#BEBEBE"/>
<path d="M465.271 119.769C465.312 119.78 465.347 119.797 465.271 119.769C465.3 119.627 465.347 119.735 465.271 119.769Z" fill="#BFBFBF"/>
<path d="M379.272 112.829C379.26 112.676 379.254 112.523 379.243 112.37C379.479 112.568 379.624 112.676 379.272 112.829Z" fill="#BABABA"/>
</g>
<defs>
<clipPath id="clip0_22_13558">
<rect width="745" height="160.941" fill="white"/>
</clipPath>
</defs>
</svg>
