<svg width="140" height="36" viewBox="0 0 140 36" fill="none" xmlns="http://www.w3.org/2000/svg">
<g clip-path="url(#clip0_4046_3920)">
<path d="M24.5947 7.48046H4.12732C4.18556 5.29189 5.99858 3.53296 8.20914 3.53296H24.5947V7.48046Z" fill="#FF5200"/>
<path d="M58.5762 3.54834V18.2617C58.5762 20.3618 57.3583 22.1814 55.4161 22.98C53.4562 23.7786 51.3191 23.3642 49.8201 21.8706L42.606 14.6832L35.3919 21.8706C34.2499 23.0104 32.7509 23.5259 31.2214 23.349C30.7454 23.2909 30.2719 23.1721 29.7958 22.98C27.8511 22.1663 26.6332 20.3618 26.6332 18.2617V3.54834H30.596V21.072L33.1332 18.5423L35.2551 16.427C37.2885 14.4002 39.9447 13.3943 42.6009 13.3943C45.2571 13.3943 47.9286 14.4002 49.9467 16.427L54.6058 21.0695V3.54834H58.5686H58.5762Z" fill="#FF5200"/>
<path d="M3.96281 7.60181V19.3129C3.56273 19.2977 3.19051 19.2244 2.82081 19.1056C1.18758 18.5876 0 17.051 0 15.2466V11.6681C0 9.86366 1.18758 8.32711 2.82081 7.80904C3.19304 7.69026 3.56273 7.61697 3.96281 7.60181Z" fill="#FF5200"/>
<path d="M8.57886 11.4888H20.6294C20.5711 13.6773 18.7581 15.4363 16.5475 15.4363H8.57886V11.4888Z" fill="#FF5200"/>
<path d="M24.5922 15.5272V19.2978C24.5771 19.697 24.5188 20.0812 24.3998 20.4375C24.2074 21.0289 23.8807 21.5621 23.4503 22.0044C22.7083 22.7727 21.6853 23.2478 20.5408 23.2478H8.02946C6.23417 23.2478 4.68956 22.065 4.15527 20.4375C4.05145 20.0837 3.97802 19.7122 3.96283 19.3129L20.6294 19.2978V11.4912C22.8248 11.5367 24.5922 13.326 24.5922 15.5272Z" fill="#FF5200"/>
<path d="M64.7495 7.49829L64.7419 8.22613L64.5849 23.2024H60.6221V11.7263C60.6221 10.718 61.0247 9.76014 61.6806 9.01209C61.7008 8.98682 61.7211 8.96407 61.7439 8.9388C62.2807 8.34238 62.977 7.88748 63.7443 7.6575C63.8076 7.63729 63.8734 7.62212 63.9418 7.60696C64.0051 7.5918 64.0709 7.57916 64.1368 7.56653C64.3368 7.52609 64.5419 7.50335 64.7495 7.49829Z" fill="#FF5200"/>
<path d="M76.6204 7.4803H64.7623C64.7623 7.081 64.8358 6.71203 64.9548 6.34053C65.4891 4.71301 67.0185 3.53027 68.829 3.53027H72.5386C74.349 3.53027 75.8937 4.71301 76.4127 6.34053C76.5318 6.69434 76.6052 7.081 76.6052 7.4803H76.6204Z" fill="#FF5200"/>
<path d="M76.6204 13.7075H64.7623C64.7623 14.1068 64.8358 14.4758 64.9548 14.8473C65.4891 16.4748 67.0185 17.6575 68.829 17.6575H72.5386C74.349 17.6575 75.8937 16.4748 76.4127 14.8473C76.5318 14.4935 76.6052 14.1068 76.6052 13.7075H76.6204Z" fill="#FF5200"/>
<path d="M94.4847 23.2024H82.6266V3.54834C84.822 3.60899 86.5869 5.39825 86.5869 7.60198V19.2524H90.4181C92.2134 19.2524 93.7554 20.4377 94.2897 22.0627C94.3935 22.419 94.4695 22.8031 94.4847 23.2024Z" fill="#FF5200"/>
<path d="M80.5831 11.5567V23.2021H76.6202V7.50562C78.8181 7.56374 80.5831 9.353 80.5831 11.5567Z" fill="#FF5200"/>
<path d="M64.742 7.50562V23.2021H60.7792V11.5567C60.7792 10.5939 61.116 9.70681 61.6806 9.01183C61.7009 8.98656 61.7211 8.96381 61.7439 8.93854C62.2605 8.33201 62.9518 7.87711 63.7443 7.65725C63.8076 7.63703 63.8735 7.62187 63.9418 7.6067C64.0051 7.59154 64.071 7.5789 64.1368 7.56627C64.3343 7.53341 64.5344 7.51067 64.742 7.50562Z" fill="#FF5200"/>
<path d="M108.361 23.2024H96.5026V3.54834C98.698 3.60647 100.465 5.39573 100.465 7.59945V19.2524H104.294C106.089 19.2524 107.634 20.4351 108.168 22.0627C108.272 22.4165 108.345 22.8031 108.361 23.2024Z" fill="#FF5200"/>
<path d="M134.381 7.42239H114.306C114.365 5.27426 116.142 3.54565 118.312 3.54565H134.396V7.42239H134.381Z" fill="#FF5200"/>
<path d="M110.576 19.3254H130.651C130.593 21.4736 128.816 23.2022 126.645 23.2022H110.407V19.3254H110.576Z" fill="#FF5200"/>
<path d="M134.541 15.3781C134.541 17.1497 133.376 18.6154 131.773 19.1386C131.424 19.2548 131.044 19.3281 130.651 19.3281V15.3225H114.291C113.911 15.3073 113.534 15.2366 113.185 15.1203C111.612 14.6123 110.445 13.1466 110.417 11.4053C110.417 9.63374 111.582 8.14016 113.185 7.61703C113.534 7.50078 113.914 7.42749 114.291 7.42749V11.4634H130.651C131.044 11.4786 131.424 11.5494 131.773 11.6656C133.346 12.1736 134.513 13.6394 134.541 15.3806V15.3781Z" fill="#FF5200"/>
<path d="M138.22 3.54828C137.969 3.54828 137.739 3.50532 137.529 3.41181C137.319 3.31831 137.121 3.19195 136.964 3.02515C136.807 2.85836 136.67 2.67134 136.577 2.46158C136.483 2.24172 136.44 2.01174 136.44 1.77166C136.44 1.53157 136.48 1.29149 136.577 1.08426C136.67 0.86439 136.797 0.677377 136.964 0.52069C137.131 0.364003 137.321 0.227534 137.529 0.134028C137.739 0.0405211 137.979 -0.00244141 138.22 -0.00244141C138.461 -0.00244141 138.701 0.0405211 138.911 0.134028C139.121 0.227534 139.319 0.353895 139.476 0.52069C139.633 0.687486 139.77 0.874499 139.863 1.08426C139.957 1.30412 140 1.5341 140 1.77166C140 2.00921 139.96 2.25183 139.863 2.46158C139.77 2.68145 139.643 2.86846 139.476 3.02515C139.309 3.18184 139.119 3.31831 138.911 3.41181C138.701 3.50532 138.461 3.54828 138.22 3.54828ZM138.22 3.12119C138.471 3.12119 138.701 3.058 138.901 2.94428C139.111 2.81792 139.268 2.66376 139.392 2.454C139.519 2.24424 139.57 2.02691 139.57 1.77671C139.57 1.52652 139.506 1.29654 139.392 1.09942C139.266 0.889662 139.109 0.732976 138.901 0.609142C138.693 0.485309 138.471 0.432238 138.22 0.432238C137.969 0.432238 137.739 0.495418 137.539 0.609142C137.329 0.735503 137.172 0.889662 137.048 1.09942C136.921 1.30918 136.87 1.52652 136.87 1.77671C136.87 2.02691 136.934 2.25688 137.048 2.454C137.174 2.66376 137.331 2.82045 137.539 2.94428C137.749 3.07064 137.969 3.12119 138.22 3.12119ZM137.592 2.56773V0.92757H138.43C138.493 0.92757 138.567 0.947788 138.65 0.980642C138.734 1.0236 138.797 1.07415 138.85 1.15755C138.904 1.24094 138.934 1.33445 138.934 1.4507C138.934 1.56695 138.904 1.67057 138.85 1.75397C138.787 1.83736 138.724 1.90054 138.64 1.94098C138.557 1.98394 138.483 2.00416 138.41 2.00416H137.802V1.73375H138.293C138.293 1.73375 138.397 1.71353 138.45 1.66046C138.504 1.60739 138.534 1.5341 138.534 1.44059C138.534 1.34709 138.504 1.2738 138.45 1.23084C138.397 1.20051 138.347 1.17776 138.304 1.17776H137.959V2.55509H137.602L137.592 2.5652V2.56773ZM138.587 1.7944L138.995 2.56773H138.597L138.2 1.7944H138.587Z" fill="black"/>
<path d="M63.4809 33.88C61.7844 33.88 60.6221 32.5936 60.6221 30.5946C60.6221 28.5956 62.0199 27.3269 63.762 27.3269C65.413 27.3269 66.2865 28.3176 66.5955 29.2173L65.7649 29.5508C65.4763 28.7497 64.8989 28.0825 63.7544 28.0825C62.6099 28.0825 61.4907 28.957 61.4907 30.5845C61.4907 32.212 62.3845 33.142 63.7088 33.142C64.9622 33.142 65.6839 32.2878 65.7371 31.4235H63.5088V30.6755H66.5676V33.7536H65.7827C65.7827 33.2128 65.9371 32.7452 66.1068 32.3838H65.7016C65.5117 32.8969 64.9698 33.8774 63.4835 33.8774L63.4809 33.88Z" fill="black"/>
<path d="M69.3834 33.8797C68.3452 33.8797 67.8591 33.1948 67.8591 32.1966V29.2979H68.6263V32.0171C68.6263 32.8637 69.0137 33.2049 69.6012 33.2049C70.6925 33.2049 70.8293 32.0626 70.8293 31.2868V29.2979H71.5965V33.7533H70.8647C70.8749 33.4298 71.0445 33.0331 71.2344 32.6995H70.8116C70.6216 33.2479 70.2241 33.8797 69.386 33.8797H69.3834Z" fill="black"/>
<path d="M73.1108 33.7535V27.4507H73.8781V33.7535H73.1108Z" fill="black"/>
<path d="M75.843 28.6309C75.843 27.8298 76.2229 27.4507 76.9876 27.4507H77.9447V28.1078H77.1142C76.7546 28.1078 76.6001 28.2695 76.6001 28.6208V29.2955H77.7827V29.9349H76.6001V33.751H75.843V29.9349H74.8327V29.2955H75.843V28.6284V28.6309Z" fill="black"/>
<path d="M81.6188 33.7535L80.0944 27.4507H80.9604L81.8087 31.1505C81.953 31.7899 81.9809 32.4925 81.9986 33.0055H82.3607C82.3784 32.5102 82.4316 31.9441 82.6316 31.2491L83.723 27.4507H84.7055L85.8069 31.5473C85.9336 31.9895 85.9969 32.5102 86.0146 33.0055H86.3843C86.3944 32.4647 86.4299 31.7621 86.5742 31.1227L87.4756 27.4507H88.3138L86.6907 33.7535H85.6449L84.5611 29.8187C84.3991 29.2071 84.3814 28.7118 84.3712 28.1709H84.0117C84.0015 28.7118 83.9838 29.2526 83.8217 29.8187L82.6848 33.7535H81.6213H81.6188Z" fill="black"/>
<path d="M91.5879 30.6931C91.5879 30.1624 91.2891 29.8187 90.5953 29.8187C89.8002 29.8187 89.504 30.2609 89.3774 30.6375L88.6658 30.3949C88.8102 29.8086 89.4229 29.1692 90.5953 29.1692C91.7677 29.1692 92.3552 29.7909 92.3552 30.7184V32.7983C92.3552 33.0333 92.4261 33.0965 92.6438 33.0965H93.0946V33.7535H92.7249C92.0741 33.7535 91.8867 33.5185 91.8943 32.8159H91.5702C91.398 33.4023 90.9473 33.8774 90.1623 33.8774C89.2963 33.8774 88.7469 33.3997 88.7469 32.6163C88.7469 31.3906 90.1168 30.9509 91.5879 30.8523V30.6906V30.6931ZM89.5394 32.5556C89.5394 32.9777 89.818 33.2481 90.37 33.2481C90.965 33.2481 91.5879 32.8437 91.5879 31.8784V31.4108C90.4864 31.5094 89.5394 31.8076 89.5394 32.5531V32.5556Z" fill="black"/>
<path d="M93.8998 33.7535V27.4507H94.667V33.7535H93.8998Z" fill="black"/>
<path d="M96.1888 33.7535V27.4507H96.9561V33.7535H96.1888Z" fill="black"/>
<path d="M99.9667 33.8799C99.002 33.8799 98.217 33.4124 98.0372 32.6011L98.7665 32.3661C98.8754 32.8336 99.2273 33.2481 99.9743 33.2481C100.633 33.2481 100.985 32.9954 100.985 32.5809C100.985 32.2397 100.769 31.9946 100.154 31.8708L99.5945 31.7621C98.8627 31.6181 98.2246 31.33 98.2246 30.4934C98.2246 29.71 98.9539 29.1692 99.8756 29.1692C100.959 29.1692 101.481 29.7277 101.653 30.2862L100.977 30.5465C100.878 30.2407 100.59 29.7808 99.868 29.7808C99.2451 29.7808 98.9564 30.0866 98.9564 30.4202C98.9564 30.7259 99.1109 30.9155 99.7236 31.0317L100.283 31.1404C100.843 31.2668 101.762 31.5726 101.762 32.5177C101.762 33.329 101.121 33.8774 99.9667 33.8774V33.8799Z" fill="black"/>
<path d="M107.1 33.88C105.738 33.88 104.899 33.1496 104.593 32.169L105.378 31.8076C105.614 32.5456 106.173 33.1395 107.145 33.1395C108.047 33.1395 108.561 32.7073 108.561 32.0781C108.561 31.5195 108.163 31.1859 107.378 31.0166L106.523 30.8094C105.576 30.6022 104.899 30.1346 104.899 29.0909C104.899 28.0472 105.765 27.3269 107.054 27.3269C108.444 27.3269 109.121 28.1811 109.31 28.7851L108.543 29.1364C108.399 28.7219 108.011 28.0547 106.991 28.0547C106.188 28.0547 105.71 28.4692 105.71 29.0454C105.71 29.5862 106.044 29.8566 106.773 30.026L107.639 30.2231C108.677 30.4581 109.407 31.0419 109.407 32.0048C109.407 33.094 108.594 33.8774 107.097 33.8774L107.1 33.88Z" fill="black"/>
<path d="M110.08 35.5074V34.8225H110.928C111.263 34.8225 111.46 34.7416 111.605 34.3449L111.84 33.6777L109.873 29.293H110.721L111.721 31.6155C111.893 32.0299 111.946 32.4621 111.957 32.9119H112.319C112.329 32.452 112.372 32.1108 112.509 31.6963L113.311 29.293H114.124L112.339 34.3878C112.06 35.2243 111.744 35.5048 110.949 35.5048H110.083L110.08 35.5074Z" fill="black"/>
<path d="M116.547 33.8799C115.582 33.8799 114.797 33.4124 114.618 32.6011L115.349 32.3661C115.458 32.8336 115.81 33.2481 116.557 33.2481C117.216 33.2481 117.568 32.9954 117.568 32.5809C117.568 32.2397 117.352 31.9946 116.737 31.8708L116.177 31.7621C115.448 31.6181 114.808 31.33 114.808 30.4934C114.808 29.71 115.539 29.1692 116.458 29.1692C117.542 29.1692 118.064 29.7277 118.236 30.2862L117.56 30.5465C117.461 30.2407 117.173 29.7808 116.451 29.7808C115.828 29.7808 115.539 30.0866 115.539 30.4202C115.539 30.7259 115.694 30.9155 116.307 31.0317L116.866 31.1404C117.426 31.2668 118.345 31.5726 118.345 32.5177C118.345 33.329 117.704 33.8774 116.55 33.8774L116.547 33.8799Z" fill="black"/>
<path d="M121.052 33.7532C120.285 33.7532 119.907 33.3842 119.907 32.6463V29.9371H118.862V29.2977H119.907V27.9204H120.664V29.2977H121.9V29.9371H120.664V32.5831C120.664 32.9344 120.827 33.0961 121.178 33.0961H122.062V33.7532H121.052Z" fill="black"/>
<path d="M124.637 33.8798C123.409 33.8798 122.599 33.0332 122.599 31.5396C122.599 30.046 123.447 29.1716 124.602 29.1716C125.911 29.1716 126.696 30.2609 126.552 31.7014H123.366C123.402 32.8083 123.997 33.2329 124.655 33.2329C125.377 33.2329 125.739 32.7097 125.873 32.3509L126.577 32.6036C126.261 33.4401 125.557 33.8823 124.637 33.8823V33.8798ZM125.774 31.0898C125.764 30.2533 125.243 29.7857 124.602 29.7857C123.961 29.7857 123.457 30.271 123.384 31.0898H125.774Z" fill="black"/>
<path d="M127.759 33.7535V29.298H128.471C128.471 29.5861 128.327 29.9475 128.154 30.1977H128.57C128.714 29.7655 129.031 29.1716 129.841 29.1716C130.482 29.1716 130.978 29.576 131.13 30.2255H131.464C131.58 29.7478 132.031 29.1716 132.798 29.1716C133.718 29.1716 134.341 29.7933 134.341 30.8295V33.756H133.573V31.019C133.573 30.1724 133.168 29.8489 132.573 29.8489C131.454 29.8489 131.418 31.0089 131.418 31.6129V33.756H130.669V31.0291C130.669 30.1749 130.264 29.8489 129.669 29.8489C128.567 29.8489 128.524 31.0089 128.524 31.6407V33.756H127.757L127.759 33.7535Z" fill="black"/>
</g>
<defs>
<clipPath id="clip0_4046_3920">
<rect width="140" height="35.5072" fill="white"/>
</clipPath>
</defs>
</svg>
